/* XPM */
static char *a9bdb52885ad4305bfd4f4e48b19ccf8tqlarsAor2TYKCRR[] = {
/* columns rows colors chars-per-pixel */
"64 64 233 2 ",
"   c black",
".  c #010000",
"X  c #000100",
"o  c #010100",
"O  c #010101",
"+  c #000002",
"@  c #0F0B0A",
"#  c #0E0D09",
"$  c #0D0C0A",
"%  c #0D0D0B",
"&  c #0E0D0B",
"*  c #0E0E0C",
"=  c #0F0E0C",
"-  c #0F0D0E",
";  c #100C0B",
":  c #110D0C",
">  c #100F0D",
",  c #120E0D",
"<  c #130F0E",
"1  c #11100C",
"2  c #10110C",
"3  c #11100E",
"4  c #12110F",
"5  c #141311",
"6  c #191816",
"7  c #1A1917",
"8  c #1C1B17",
"9  c #1A1819",
"0  c #1B1A18",
"q  c #1B1B19",
"w  c #1C1B19",
"e  c #1F1B18",
"r  c #1D1C1A",
"t  c #1E1D1B",
"y  c #1F1E1A",
"u  c #1E1E1C",
"i  c #1F1E1C",
"p  c #1F1F1D",
"a  c #201B18",
"s  c #201C19",
"d  c #211D1A",
"f  c #221D1A",
"g  c #201F1B",
"h  c #221E1B",
"j  c #231E1B",
"k  c #211D1C",
"l  c #201F1D",
"z  c #231F1C",
"x  c #221E1D",
"c  c #21221D",
"v  c #24201D",
"b  c #25211E",
"n  c #252621",
"m  c #262722",
"M  c #262624",
"N  c #272725",
"B  c #282725",
"V  c #2B2726",
"C  c #272823",
"Z  c #282924",
"A  c #2A2925",
"S  c #282A25",
"D  c #292A25",
"F  c #282826",
"G  c #292826",
"H  c #292927",
"J  c #2A2927",
"K  c #2B2A26",
"L  c #2A2B26",
"P  c #2B2C26",
"I  c #2A2C27",
"U  c #2B2C27",
"Y  c #2A2A28",
"T  c #2B2A28",
"R  c #2B2B29",
"E  c #2A2A2A",
"W  c #2C2B29",
"Q  c #2C2D28",
"!  c #2D2E28",
"~  c #2C2E29",
"^  c #2D2E29",
"/  c #2E2F29",
"(  c #2C2C2A",
")  c #2D2F2A",
"_  c #2F2E2A",
"`  c #2E2F2A",
"'  c #2D2B2C",
"]  c #2D2D2D",
"[  c #2E2E2C",
"{  c #2F2E2C",
"}  c gray18",
"|  c #2F2F2F",
" . c #2F302A",
".. c #2F302B",
"X. c #30312B",
"o. c #30312C",
"O. c #31322D",
"+. c #31302E",
"@. c #33342F",
"#. c gray19",
"$. c #323230",
"%. c #343530",
"&. c #363732",
"*. c #363634",
"=. c #363833",
"-. c #373833",
";. c #373934",
":. c #383933",
">. c #393834",
",. c #383934",
"<. c #393A35",
"1. c #383836",
"2. c #393937",
"3. c #3A3B36",
"4. c #3B3C37",
"5. c #3A3A38",
"6. c #3B3B39",
"7. c #3C3B39",
"8. c #3C3C3A",
"9. c #3D3D3B",
"0. c #3E3F3A",
"q. c #3E3E3C",
"w. c #3F3E3C",
"e. c #3F3F3D",
"r. c #3E3E3E",
"t. c #3F3F3F",
"y. c #403F3B",
"u. c #403F3D",
"i. c #3F403B",
"p. c #3E403D",
"a. c #40413C",
"s. c #40403E",
"d. c gray25",
"f. c #454442",
"g. c #454543",
"h. c #464644",
"j. c #474745",
"k. c #474546",
"l. c gray28",
"z. c #484745",
"x. c #474843",
"c. c #484944",
"v. c #494A45",
"b. c #484846",
"n. c #494846",
"m. c #494947",
"M. c #4A4947",
"N. c #4A4B46",
"B. c #4B4C46",
"V. c #4B4C47",
"C. c #4C4D47",
"Z. c #484848",
"A. c #4C4D48",
"S. c #4D4E49",
"D. c #4E4F4A",
"F. c #535351",
"G. c #535353",
"H. c #555651",
"J. c #555553",
"K. c #5F5F5F",
"L. c #615F60",
"P. c #606060",
"I. c #626262",
"U. c gray39",
"Y. c #656366",
"T. c #646464",
"R. c #656565",
"E. c #646466",
"W. c #656567",
"Q. c gray40",
"!. c #676767",
"~. c #686868",
"^. c DimGray",
"/. c #6A6A6A",
"(. c gray42",
"). c #6C6E6B",
"_. c #6C6C6C",
"`. c #6D6D6D",
"'. c gray45",
"]. c #747474",
"[. c gray46",
"{. c #767676",
"}. c gray47",
"|. c gray59",
" X c #979797",
".X c #989898",
"XX c gray60",
"oX c #9A9A9A",
"OX c #9B9B9B",
"+X c gray61",
"@X c #9D9D9D",
"#X c gray62",
"$X c #9F9F9F",
"%X c #A0A0A0",
"&X c gray63",
"*X c #A2A2A2",
"=X c gray64",
"-X c #A3A3A5",
";X c #A4A4A4",
":X c #A5A5A5",
">X c gray65",
",X c #A7A7A7",
"<X c #A9A9A7",
"1X c #A9A7A8",
"2X c gray66",
"3X c #A9A9A9",
"4X c #ABABA9",
"5X c #AAAAAA",
"6X c gray67",
"7X c #ACACAC",
"8X c gray68",
"9X c #AFAFAD",
"0X c #AEAEAE",
"qX c #AFAFAF",
"wX c #B0AEAF",
"eX c #B0B0AE",
"rX c gray69",
"tX c #B1B1B1",
"yX c #B2B2B0",
"uX c #B2B2B2",
"iX c gray70",
"pX c #B2B2B4",
"aX c #B4B4B4",
"sX c #C3C3C3",
"dX c #C4C4C2",
"fX c gray77",
"gX c #C5C5C5",
"hX c #C8C8C8",
"jX c gray79",
"kX c #CBCBCB",
"lX c gray80",
"zX c #CDCDCD",
"xX c #CECECE",
/* pixels */
"XX@X XXXXXXXXX XXXXXXXXX@X@X@X&X&X&X&X@X@X@X@X@X&X&X&X-X&X&X&X@X@X@X@X@X@X&X&X;X;X;X&X&X@X@X@X@X@X@X&X&X;X&X;X;X;X1X3X3X3X7X;XL.",
"&X}.'.'.'.].].].].].].].].].].].].].].].].].].].].].].].].].].].].].].].].].].].].].].].].].].].].].].].].].].].].].].].].].hXK.",
"XX^.U ^ b.b.b.b.b.b.b.b.b.b.b.b.b.b.b.b.b.b.b.b.b.b.b.b.^ U d d ^ +.S.S.S.S.S.S.S.S.S.S.S.S.S.S.S.S.S.S.S.S.S.S.S.S.$.[     hXU.",
"@X^.^ ^ x.j.j.j.j.j.j.j.j.j.j.j.j.j.j.j.j.j.j.j.j.j.j.j.^ U e e ..+.S.S.S.S.S.V.V.V.V.V.V.b.V.V.V.V.S.S.V.S.V.V.C.S.$.[     hXQ.",
";X^.b.j.6.8.6.@.U U U U U U U U U U U U U U U U U U 6.7.^ U     e.e.e.e.e.*.^ ^ ^ ^ ^ ^ ^ ^ ^ ^ ^ ^ ^ ^ ^ ^ ^ ^ e.e.[ [     hXQ.",
"3X^.b.j.6.6.6.$.U U U U U U U U U U U U U U U U U Z 6.6.Z Z     e.e.e.e.e.*.^ ^ ^ ^ ^ ^ ^ [ ^ ^ ^ ^ ^ ^ ..^ ^ ^ 8.e.[ '     xXQ.",
"3X^.b.j.U U U Z n Z U ^ U U U U U U U U U U U U U U U U > &     e.e.^ ^ ^ ^ ^ ^ ..^ ^ ^ ^ N N ^ ^ C C ^ ^ ^ ^ ..^ ^ 3 =     xXQ.",
"3X^.b.j.U U U Z Z Z U Z Z U U U U Z Z U U Z U U U U U U > &     e.e.^ ^ ..^ ^ ^ ^ ^ ^ ^ ^ Y Y ^ ^ Z U ^ ^ ^ ..^ ^ ^ 3 =     xXT.",
"3X^.b.j.U U Z U U U U n n U U U U n n U U U U U U U U U 3 =     e.e.^ ^ ^ ^ ^ ^ ^ ^ ^ ^ ^ ^ ^ ^ ^ ^ ^ ^ ^ ^ ^ ^ ^ ^ 3 >     hXQ.",
"3XQ.b.j.U U U U U U U Z Z U U U U Z Z U U U U U U U U U > &     e.e.^ ..^ ^ ^ ^ Z ^ ^ ....^ ^ ^ ^ ^ ^ ^ ^ ^ ^ ^ ^ ^ 3 =     hXQ.",
"3XQ.b.j.U U U U U U U U U U U U U U U U U U U U U U U ^ 3 &     i.e.^ ^ ^ ^ ^ Y n ^ ..^ ^ ^ ^ ^ ..^ ^ ^ ^ ^ ^ ^ ^ ^ 3 =     xXQ.",
"<XQ.b.f.> > > r U U U U U U U U U U U U U U U U r > > > & &     e.8.3 3 3 z ^ ^ ..^ ^ ^ ^ ^ ^ ^ ^ ^ ^ ^ ^ ^ z 3 > 3 = =     xXQ.",
"3XQ.b.f.& @ & r U U U U U U U U U Z U U U U U U r & & & & &     e.8.= > = i ^ ^ ^ ^ ^ ^ ^ ^ ^ ^ ^ ^ ^ ^ ^ ^ i > = = = =     xXQ.",
"7XQ.^ U & & & = > > > > > > > > > > > > > > > > > & & & & &     3 3 > & = > 3 3 3 3 3 3 3 3 3 3 3 3 3 3 3 3 > = = = = =     xXQ.",
"7XQ.U Z & & & & & & & & & & & & & = = & & & & & & & & & & &     = = = = = = = = > = = = = = = = = > = = = = = = = = = =     xXQ.",
"rXQ.= &                                                                                                                     xXU.",
"rXQ.= &                                                                                                                     xXU.",
"rXQ.>.>.b.b.b.b.b.b.b.b.b.Y Z     d z e.e.e.s.e.e.e.e.e.e.e.e.e.e.e.e.e.e.e.e.e.u.e.e.3 =     V Y b.j.b.b.b.b.b.b.b.b.b.    xXQ.",
"rXQ.>.4.j.j.j.j.j.j.j.b.b.W Z     z b s.e.e.e.e.e.e.e.e.e.e.e.e.e.e.e.e.e.e.e.e.e.e.e.5 3     Y ^ b.b.b.b.j.j.j.j.j.j.j.    xXQ.",
"rXQ.J.F.>.>.-.-.>.>.>.j.b.>.>.    s.e.e.e.e.*.^ ^ ^ ^ ^ ^ ^ ^ ^ ^ ^ ^ ^ ^ ^ ^ ^ ^ e.e.$.[     b.b.b.b.b.s.>.;.>.>.>.-.-.    xXQ.",
"eXQ.J.F.>.>.>.>.>.-.>.j.j.>.>.    e.e.e.e.e.&.^ ^ ^ ^ ^ ^ ^ ^ ^ ^ ..^ ^ ^ ^ ^ ^ ^ 8.e.[ [     b.b.j.j.j.s.>.>.>.>.>.>.>.    hXQ.",
"rXQ.J.F.>.>.>.>.>.>.>.>.>.Y Z     e.e.^ ^ ^ ^ ^ [ ^ ^ ^ ^ ^ ^ ..N N ^ ^ ^ ^ ^ ^ ^ ^ ^ 3 &     b.j.>.>.>.>.>.>.>.>.>.>.>.    hXT.",
"rXQ.J.F.>.>.&.&.>.>.>.>.>.Y Z     e.e.^ ^ ^ ....^ Y ^ ^ ^ ^ ^ ..Z ^ ^ ..Y Y Y ^ ^ ^ ^ 3 =     b.j.-.>.>.-.>.&.&.>.>.>.>.    xXQ.",
"7XQ.J.F.>.-.+.&.>.>.>.>.>.Y Z     e.e.^ ^ ^ ^ ^ Y N ^ ^ ^ ^ ^ ....^ ^ ^ N N N Y ^ ^ ^ 3 =     b.j.>.>.>.>.>.&.X.>.>.>.>.    xXQ.",
"wXQ.J.J.>.>.&.&.>.>.>.>.>.Y Z     s.e.^ ^ ^ ^ ^ ^ Z ^ ^ ^ ..^ ^ ^ ..^ ^ Y Y Y ^ [ ^ ^ 3 =     b.x.>.;.>.>.>.&.%.>.;.>.;.    xXQ.",
"7XQ.J.F.>.>.>.>.>.>.>.>.>.Z Z     e.e.^ ^ ^ ^ ^ ^ ^ ^ ^ ..^ ^ ^ ^ ^ ^ ^ ^ ^ ^ ^ [ ^ ^ 3 =     b.x.>.>.>.>.>.;.;.>.>.>.>.    xXQ.",
"7XQ.J.F.>.>.>.>.>.+.Z Z Z Z Z     e.8.3 3 > z ^ ^ ^ ^ ^ ^ ^ ^ ^ ^ ^ ^ ^ ^ ^ ^ i 3 3 3 = =     b.f.e e e Z >.;.>.>.>.>.>.    xXQ.",
"rXQ.J.F.>.>.>.>.>.+.Z Z Z Z Z     e.8.= = = r ^ ^ ^ ^ ^ ^ ^ ^ ^ ^ ^ ^ ^ ^ ..[ i = = = = =     b.j.7 7 7 Z >.>.;.>.>.>.>.    xXQ.",
"rXQ.>.>.Z Z Z Z Z Z Z Z Z Z Z     3 3 = = = > 3 3 3 3 3 3 3 3 3 3 3 3 3 3 > 3 > = = = = =     r r 7 7 7 q e e e q e e e     xXQ.",
"rXQ.>.;.Z Z Z Z Z Z Z Z Z Z Z     = = = = = = = = = = = = = = = = = = = = = = = = > = = =     7 7 7 7 7 7 7 7 7 7 7 7 7     xXQ.",
"rXQ.= =                                                                                                                     xXQ.",
"rXQ.= =                                                                                                                     xXQ.",
"rXQ.^ +.e.e.e.e.e.e.e.e.e.e.e.e.e.e.e.e.e.e.e.e.e.e.e.e.z d     a z 6.6.6.6.6.6.6.6.6.6.6.6.6.6.6.6.6.6.6.6.6.6.6.6.d e     hXQ.",
"rXQ...+.e.e.e.e.e.e.e.e.e.e.e.e.e.e.e.e.e.8.e.e.e.e.e.e.z d     z z 6.6.6.4.6.6.6.6.6.6.6.6.6.6.6.6.6.6.6.6.6.6.6.6.d d     hXT.",
"iXQ.S.S.e.e.e.*.^ ^ ^ ^ ^ ^ ^ ^ ^ ^ ^ ^ ^ ^ ^ ^ ^ [ e.s...^     6.6.6.6.6.@.U U U U U U U U U U U U U U U U U U 6.6.^ U     xXQ.",
"iXQ.S.S.e.e.e.*.^ ^ ^ ^ ^ ^ ^ ^ ^ ^ ^ ^ ^ ^ ^ ^ ^ ^ 8.e.^ ^     6.6.6.6.6.@.U U U U U U U U U U U U U U U U U U >.6.Z Z     xXQ.",
"rXQ.S.S.....^ ^ ^ Z N ^ ^ ^ ^ ^ ^ ^ ^ ^ [ N N N Y ^ ^ ^ 3 =     6.6.U U U U U U U U U U U n n U Z U U U ^ ^ U U Z Z > &     xXQ.",
"rXQ.S.V.....^ ^ ^ ^ Y ^ ....^ ^ ^ ..^ ^ ^ Y Y Y ^ ^ ^ ^ > =     8.6.U U U U ^ U U U U U U Z Z U U U Z U Z Z Z U U U 3 >     xXQ.",
"rXQ.S.V.^ ^ ^ ^ ^ ^ ^ ^ ^ ^ ^ ^ ^ ^ ^ ^ ^ ^ ^ ^ ^ ^ ^ ^ 3 =     6.6.U U U U U U U U U U U U U U U U U U Z n Z U U U > &     xXQ.",
"aXQ.S.V.^ ^ ^ ^ ^ ^ ^ ^ ^ Y Y ^ ^ ^ ^ ..^ ^ ^ ^ ^ ^ ^ ^ > >     6.6.U U U U U U U Z C U U U Z U U Z Z U Z Z Z U U U > ;     xXQ.",
"pXQ.S.V.^ ^ ^ ^ [ ^ ^ ^ ^ N N ^ ^ ^ ^ ^ ^ ^ ^ ^ ^ ^ ^ ^ 3 =     6.6.U U U U Z U U n n ^ U U U U U n n U U U U U U Y > &     xXQ.",
"rXQ.S.b.3 > 3 z ^ ^ ^ ^ ^ ^ ^ ^ ^ ^ ^ ^ ^ N ^ ^ z 3 3 3 = =     6.>.> > > r U U U U U U U U U U U U U U U U r > > > & &     xXQ.",
"7XQ.S.b.= = = i ^ ^ ^ ^ ^ ^ ^ ^ ^ ^ ^ ^ ..N Y ^ i = = = = =     6.>.& & & r U U U U U U U U U U U U U U U U e & & & & &     xXQ.",
"3XQ.+.^ > = = > 3 3 3 3 > 3 > 3 3 3 3 3 3 3 3 3 > = = = = =     3 3 & & & = = > > 3 > > > > > > > > > > > > = & & & & &     xXQ.",
"3XQ.^ ^ = = = = = = = = = & = = = = = = = = > > = = = = = =     & & & & & & & & & & & & & & & & & & & & & & & & & & & &     xXQ.",
";XQ.= &                                                                                                                     xXQ.",
";XQ.= &                                                                                                                     xXQ.",
";XQ.^ ..e.e.s.e.i.e.e.p.u.d d     Z Y b.Z.b.b.b.b.b.b.j.b.b.b.b.b.b.b.b.b.b.b.b.b.Z.b.Z V     d d y.e.e.e.e.e.e.e.e.s.s.    hXQ.",
"&XQ.+.+.e.e.e.8.e.e.e.d.e.b d     Z ^ b.b.b.b.j.j.j.b.j.j.j.j.j.b.j.j.j.j.j.j.b.z.b.b.W Z     z c i.e.e.e.e.e.e.e.e.e.e.    xXQ.",
"&XQ.S.V.^ ^ ^ ^ ^ ^ ^ e.e.+.^     b.b.b.j.b.s.>.>.>.>.>.>.>.>.>.>.>.>.>.>.>.>.>.-.j.b.>.>.    e.e.e.e.e.*.^ ^ ^ ^ ^ ^ ^     xXQ.",
"&XQ.S.S.^ ^ ^ ^ ^ ^ ^ 8.e.^ ^     b.b.j.j.j.i.>.>.>.>.;.>.>.>.>.>.>.>.>.>.>.>.>.>.j.j.-.&.    e.e.e.e.e.&...^ ^ ..^ ^ ^     xXQ.",
"&XQ.S.V.^ ^ [ Z N Y ^ ^ ^ > ;     b.j.>.>.>.&.+.+.+.>.>.>.>.>.>.>.>.-.>.>.&.+.&.>.>.>.q 7     e.e.^ ^ ^ ^ ^ ^ ^ ^ ^ N N     xXQ.",
"&XQ.S.S.^ ^ Z Y Y ^ ..^ ^ 3 =     b.j.>.>.>.&.&.&.&.>.;.>.>.;.>.&.&.>.>.>.&.&.&.>.>.-.e q     e.e...^ ^ ^ Y ^ ..^ ^ Y Y     hXQ.",
"&XQ.S.V.^ ^ N Y ^ ^ ^ ^ ^ 3 =     b.j.-.>.>.>.>.>.>.;.;.>.>.>.>.+.+.>.>.>.>.;.>.>.>.>.e 7     e.e.^ ..^ Y N Y ^ ^ ^ ^ ^     xXQ.",
";XQ.S.V.^ [ Y ^ ^ ^ ^ ^ ^ 3 =     b.j.>.>.>.>.:.>.>.&.&.-.>.>.>.&.&.>.>.>.>.;.;.-.>.>.e 7     e.e.^ ^ ^ ^ Y ^ ^ ^ ^ ^ ^     xXQ.",
";XU.S.V.^ ^ ^ ^ ^ ^ ^ ^ ^ 3 =     b.j.:.>.>.>.>.>.>...+.>.>.;.>.>.>.>.-.>.>.>.;.>.>.>.e 7     e.e.^ ..^ ..^ ^ ^ ^ ^ ^ ^     xXQ.",
";XQ.S.V.^ ..^ ^ ^ z 3 3 3 = =     b.f.q e q Z >.>.>.>.>.>.>.>.>.>.>.>.>.>.>.>.Z e e e 7 7     u.8.3 3 3 d ^ ^ ^ ^ ^ ^ ^     xXQ.",
"3XQ.S.V.^ ^ ^ ^ ^ i = = = > =     b.f.7 7 7 Z >.>.>.>.>.>.>.>.>.>.>.-.;.>.>.>.Z 7 7 7 7 7     u.8.= = = i ^ ^ ^ ^ ^ ^ ^     xX^.",
"3XQ.+.^ > 3 3 3 3 > = = = = >     r r 7 7 q q 8 e e e e e e e e e e q q e e e q 7 7 7 7 7     3 3 = = = > 3 3 3 3 3 3 3     hXQ.",
"7XQ.^ ^ = > = = & = = = = = =     7 7 7 7 7 7 7 7 7 7 7 7 7 7 7 7 7 7 7 7 7 7 7 7 7 7 7 7     = = & = = = = = = = & = =     hXQ.",
"7X_.                                                                                                                        hXQ.",
"7X).                                                                                                                        hX^.",
"7XxXxXhXdXfXfXfXfXfXfXfXfXfXfXfXfXfXfXfXfXfXfXfXfXfXfXfXfXfXfXfXfXfXfXfXfXfXfXfXfXfXfXfXfXfXfXsXfXfXfXfXfXfXfXfXfXfXsXsXsXfXhX^.",
"_._._._._._._._._._._._._._._._.^.^.^.^.^.^.^.^.^.^.^.^.^.^.^.^.^.^.^.^.^.^.^.^.^.^.^.^.^.^.^.^.^.^.^.^.^.^.^.^.^.^.^.^.^.^.^.U."
};
