/* XPM */
static char *_1e3fd5a30614915946f99e5b6a6df6dQmzbU32eu5sZeu8N[] = {
/* columns rows colors chars-per-pixel */
"64 64 151 2 ",
"   c gray12",
".  c #20201E",
"X  c #211F20",
"o  c #1F2120",
"O  c #202020",
"+  c #272926",
"@  c #292927",
"#  c #2A2A2A",
"$  c #302E2F",
"%  c #30302E",
"&  c #2E2E30",
"*  c #312F30",
"=  c #2F3130",
"-  c #313132",
";  c #35343A",
":  c #38363E",
">  c #373542",
",  c #393745",
"<  c #3A3945",
"1  c #413D4E",
"2  c #423E50",
"3  c #3F4150",
"4  c #41414C",
"5  c #45484F",
"6  c #444154",
"7  c #484654",
"8  c #474A53",
"9  c #4A4956",
"0  c #474558",
"q  c #474D5B",
"w  c #494D5D",
"e  c #514D5E",
"r  c #48505B",
"t  c #52565F",
"y  c #54595F",
"u  c #5F5F5F",
"i  c #4B4E62",
"p  c #4E5063",
"a  c #555363",
"s  c #595667",
"d  c #565A64",
"f  c #595A66",
"g  c #565769",
"h  c #5A5768",
"j  c #55596B",
"k  c #595A6B",
"l  c #595E71",
"z  c #615F6D",
"x  c #5B616F",
"c  c #576071",
"v  c #596072",
"b  c #656565",
"n  c #686765",
"m  c #666867",
"M  c #676769",
"N  c #696768",
"B  c #6B6B6B",
"V  c #626575",
"C  c #696574",
"Z  c #616679",
"A  c #656B7C",
"S  c #6A6C7C",
"D  c #6A717E",
"F  c #757575",
"G  c gray47",
"H  c #6A6E81",
"J  c #6B7182",
"K  c #717585",
"L  c #757D8D",
"P  c #797C8B",
"I  c #767F90",
"U  c #787F91",
"Y  c #76808C",
"T  c #79818E",
"R  c #768192",
"E  c #7B8395",
"W  c #7F8995",
"Q  c #7B8398",
"!  c #808893",
"~  c #808895",
"^  c #818996",
"/  c #858D9A",
"(  c #868E9B",
")  c #868E9B",
"_  c #888E9E",
"`  c #88909D",
"'  c #89919E",
"]  c #8A929F",
"[  c #89919E",
"{  c #979797",
"}  c #989898",
"|  c gray60",
" . c #9A9A9A",
".. c #9B9B9B",
"X. c #9A9C9B",
"o. c gray61",
"O. c #9D9D9D",
"+. c gray62",
"@. c #9F9F9F",
"#. c #868FA0",
"$. c #8790A1",
"%. c #8793A3",
"&. c #8790A1",
"*. c #8891A2",
"=. c #8A91A3",
"-. c #8992A3",
";. c #8A93A4",
":. c #8992A3",
">. c #9098A3",
",. c #9298A4",
"<. c #9399A5",
"1. c #919BA7",
"2. c #929AA7",
"3. c #959BA7",
"4. c #949CA7",
"5. c #969DA7",
"6. c #939BA8",
"7. c #939DA9",
"8. c #959DA8",
"9. c #949CA9",
"0. c #969CA8",
"q. c #979DA9",
"w. c #959DAA",
"e. c #969CAA",
"r. c #A0A0A0",
"t. c gray63",
"y. c #A2A2A2",
"u. c gray64",
"i. c #A2A2A4",
"p. c #A3A5A4",
"a. c #A4A4A4",
"s. c #A7A7A7",
"d. c #A4A4A4",
"f. c #A8A6A7",
"g. c #A9A9A9",
"h. c gray66",
"j. c #AAAAAA",
"k. c gray67",
"l. c #ACACAC",
"z. c #AEAEAE",
"x. c #ACACAD",
"c. c #B0B0AE",
"v. c #B1B1AF",
"b. c gray69",
"n. c #B1B1B1",
"m. c #B2B2B2",
"M. c #C4C4C4",
"N. c #CBCBCB",
"B. c #CBCDCC",
"V. c gray80",
"C. c #CCCCCC",
/* pixels */
"| O.{ | | | | { | | | X.| O.O.t.t.t.t.O.O.O.O.O.t.t.t.t.t.t.t.O.O.O.O.O.t.t.t.a.p.a.t.t.O.O.O.O.O.O.t.t.i.t.a.a.a.g.g.g.g.l.a.b ",
"t.G F F F F F F F F F F F F F F F F F F F F F F F F F F F F F F F F F F F F F F F F F F F F F F F F F F F F F F F F F F F F N.u ",
"| N 0.0.3.0.0.0.0.4.0.0.0.- # # # # & ~ ~ ~ ~ ~ W ~ ~ ~ ~ ~ W ~ ~ ~ ~ ~ ~ ~ ~ ~ ~ ! W ~ W ~ ~ @ # # $ ` ` ` -.` ` ` ` ` , , N.b ",
"O.N 0.0.0.0.0.4.0.6.2.2.2.; # # # # ; ~ ~ ~ ~ ~ ~ W W W W W W W ~ ~ ~ ~ ~ ~ ~ W W W W W W W W # # # # ` ` ` ` ` ( ( ( ( , , N.m ",
"a.N 0.7.-.-.%.-.;.R D J J J J # # T T T T T T T T T v x x x x x T T T T T T T D x x x x v x x x k # & E E W E E v v v v , , N.m ",
"g.N 0.7.-.-.-.-.%.R J J J J J # # T T T T L L L Y Y v x x x x x L P L L Y Y Y D x x x x x x x k f # - E E E E E v c v v , , V.m ",
"g.N 0.0.-.-.-.R J J J J J J J - - T T T P x x x v x s a a a x x x x x x x v x x x x x x v x x 7 7 - - E J v v v v v v v , , V.m ",
"g.N 0.6.T R P K S S J J J V V - - T T D D x x x x v f h a a h h h f x x f f h h h x x x x x x 7 7 % ; E J v v v v v v v , , V.b ",
"g.N 0.2.J J C C C S J J J h s - - T Y x x x x x x x v x s a a a a s x k a a a a a k x x x x x 7 7 * ; Q J v v v v v v v , , B.b ",
"g.m 0.2.S S C C C S J V V h s - - T L x x x x x x x x x h h h h h h x x f f a f h x x v x a a 7 6 - ; E J v v l h h k h , , V.b ",
"g.m 0.2.C C C S J J J h s s s = - T L x x x x x x x x x x x x x x x x x x f a h x x x x x 7 7 7 6 % ; E J v v v a a a a , , V.m ",
"g.m 0.2.J S h h h h h s s s s - - T P x x x x x x x 9 7 9 7 7 7 7 7 7 7 x x x x x 9 7 7 7 7 7 7 7 % - v v v h a l l l l , , V.b ",
"g.m 0.2.J S s h s s s s s s s - - T L x x x x x x x 7 7 7 7 7 7 7 6 7 7 x x x x x 7 7 7 7 6 7 7 7 % - v v v k a l v v v , , V.m ",
"l.m 0.2.h h s s s s s s s h s # # v v x x x x x a 7 7 7 7 7 7 7 7 7 7 7 7 7 7 9 7 7 7 7 7 7 7 7 6 @ # v v v v l v v 0 6 , , V.m ",
"l.m 0.2.s s s h s s s s s s s # # x x x x x x x a 7 7 7 7 7 7 7 7 7 7 7 7 7 7 6 7 7 7 7 7 7 7 7 5 # # v v v v v v v 6 6 , , V.b ",
"b.m 0.2.s s s s s s h s s s s # # + # 7 7 7 7 7 7 7 7 7 7 7 7 7 7 7 7 7 7 7 7 7 7 6 7 7 7 7 7 7 6 # # # : 6 6 6 6 6 6 6 , , V.m ",
"b.N 0.>.s s s s s s s s s s s # # # # 7 7 7 7 7 7 7 7 7 7 7 7 7 7 7 7 7 7 9 7 7 7 7 7 7 7 7 7 7 6 # # @ : 6 6 6 6 6 6 6 , , V.m ",
"b.m @ # # # - % # - - - - # # # # # # # # # # # # - - - - - % % - - # # # : 7 7 7 7 7 7 7 7 7 @ # # # # # # # - # # @ # O O V.m ",
"b.m # # & & ; ; ; ; ; ; ; & & & & & & # # # # # - ; ; ; ; ; ; ; ; - # # # : 6 7 6 7 7 7 7 6 6 # # # # & & & - ; & & # # O O V.m ",
"c.m # & E E E E E E E E W E E E E E I # # # 8 A A A A A A A A A A A A A # # # # # - - % - # # # # # & E W E E E E E & # X X V.b ",
"b.m # ; E E E E E E Q E W E E R E E L # # # 8 A A A A A A A A A A A A V # # # # & ; ; ; ; & # & & & ; E E E E E R E - # X X C.b ",
"b.m ` ` E E E E E W E E E E E v v v v v j # 8 A A A A A p w w w w i w w r < # t E E E E E Q E W E E E E E W J v v v v v X X V.b ",
"b.n ` ( J J S H J L E E E J J h h v c p i # 9 A A A k k w q q q w w w w 6 : # d E E E J J J J E E E E J H S Z v v v v v O O V.m ",
"l.M ` ( v l a h v J Q E Q v v a a v l 6 6 - 9 A A A p w 9 9 9 9 w w w q , ; * d E E E v v v v E E E E v k a k v v v v v O O V.m ",
"l.m ` ( v l h k v A J S S k h h h p i 6 6 = w A v h w q 9 9 q q w w w q , ; # g E J J v v h h J J J J v k h k v l v a p O   V.m ",
"l.N ` ( v v v v v v v a a a a v v 6 6 6 6 = 9 A g 9 9 9 9 9 w w w w w q , ; # d E v v v v a a v v v v v v v v v v v 0 6 O O V.m ",
"b.m ` ( 6 6 6 a v l v 6 6 6 6 6 6 6 6 6 6 - 9 A g 9 w w w w < < w q < < , ; - g E v v s a a a a s v v v a 6 6 6 6 6 6 6 O O V.b ",
"c.m ` ( 6 6 6 p v v v 6 6 6 6 6 6 6 6 6 6 * 9 A g 9 w w w w , , w q , , , ; - d E v v a a a a a a v v v i 6 6 6 6 6 6 6 O O V.m ",
"b.m ` ( 6 6 6 6 6 6 6 6 6 6 6 6 6 6 6 6 6 # < p p w w w < < , , < < , , , - # 5 v v v l l l l 6 6 6 6 6 6 6 6 6 6 6 6 6 o O V.m ",
"b.m ` ( 6 6 6 6 6 6 6 6 6 6 6 6 6 6 6 6 6 # < w w i p i < < , , , , , , , ; # 6 l v v v v v v 6 6 6 6 6 6 6 6 6 6 6 6 6 X O N.m ",
"b.m ` ( 6 6 6 6 6 6 6 6 6 6 6 6 6 6 6 @ # # # # ; , , , , , , , , , , > # @ # # # 6 6 6 6 6 6 6 6 6 6 6 6 6 6 6 6 6 2 6     B.m ",
"b.m ` ( 6 6 6 6 6 6 6 6 6 6 6 6 6 6 4 # # @ # # ; , , , , , , , , , , > @ # # # @ 6 6 6 6 6 6 6 6 6 6 6 6 6 6 6 6 6 6 6     V.m ",
"b.m - - % - # # # # # # # = = - - # # # # # # # # # - - - - % - * % # # # # # # # # # # # # # * - = = # # # # # # # # # X O V.m ",
"b.m ; ; - - & # # # # # # ; ; ; ; & # # # # * $ # $ ; ; ; ; ; ; ; ; # # # # $ # # # # # # # # ; ; ; ; # # # # # # # & & O O V.m ",
"b.m ` ` ~ ~ ~ d # # # / -.-.-.-.-.-.-.-.;.-.;.-.-.;.-.-.-.-.-.%.-.-.-.-.-.-.-.-.-.* # # # L L L L L L L L L L L L L ~ ~ , , V.m ",
"m.n ` ` ~ ~ W y # # # / -.-.-.;.-.%.%.%.%.%.-.-.-.-.-.%.%.%.%.%._ ( ( ( #.%.%.( ( # # # # L L L L L L L L L L L L L W ~ , , V.m ",
"b.m -._ Z V V 5 # f -.-.-.-.-.-.-.J J J J J R -.;.-.J J J J J J C C C C J J J V s # # J L L L j j j j j j j J ^ A V Z V , < V.b ",
"b.m ` _ A V g 4 # f -.-.-.R T R R D J J J S K P P P J J V V V V z z S S J A V k s $ # K L V V a g j j a a a x C V V Z V < < V.m ",
"b.m ` ( V v 9 < # f -.-.-.J J J J J J J H C C C C C J J h s s s s h J J J V s s h - - K L e e e e j g e e e e e v V V V < , B.b ",
"b.m ` ( h g 9 < # t R R R J J V V V V J J z z z z z V V h s h s h h V V V k s s h # # V A a a a a w w 7 7 7 9 e a a a a , , N.b ",
"b.N ` ( 9 9 9 < # 9 J J J J J s s s h J S s s s s s s h s s s s s h s s s s s s h # # g j j j j g 1 1 1 1 1 7 e 1 1 1 2 , , V.b ",
"b.N ` ( 9 7 # # # 4 h h h h h s s s s h h s s s s s $ # # # # # - - - - - - - # # # # 4 2 1 6 2 6 1 1 1 1 1 1 1 1 1 1 1 , , V.m ",
"l.m ` ( 9 9 # # # 4 s s s s s s s s s s s s s s s s # # # # # # - - - - - - - # # # # 1 1 1 1 1 1 1 1 1 1 1 1 1 1 1 1 1 , , V.m ",
"g.m # # # # # # # # # - - - - - - - - - - - - - # # @ # # # I R I I L I I I I R R & # # # # # # # # # - & # # # # # # # O O V.b ",
"g.m # # # # # # # # # - # - - - * * - * - - - - # # # # # # E E E E E E E E E E Q & # # # # # # # # # - # # # # # # # # O O V.m ",
"a.m @ & E E E E E E E E E E E E E E E E W E E E E E & # R E E E E E E E E E E E E E W & # # # # # A A A A A A A A A # # O O V.m ",
"a.m # & E E E E E E E E E E E E E E W E E E E E E E & # I E E W E E E E E E E E E E E & # # # # # A A A A A A A A A # # O O V.m ",
"a.m -.` E E W E E E E E E E E E E W E v v v v v v v - - I E E E E E E E W E E J l v v v v # # A A A A A j w k A p w w w O O V.m ",
"t.m ` ` Q E E E E E E E W W E R E R I l l l l l v v - - R E E E E E E E Q R E J v v v l l # # A A A A A j w j A p w w w O O V.m ",
"t.m ` ` E E v l v v v E E E E v v v l a a a a a h v - - I E E E v v E E E S a h v v v 6 6 - - A A A A w w w w i w w w w O O V.m ",
"t.m ` ` E E v v l l l U R R R v l l l a a a a a g k ; = I E E E v v R R R A a g l v v 6 6 - - A A A A w w w q w w w q q O O V.m ",
"t.m -.` W R v h a a a a a a a v v a a a a v p 6 6 6 - - I E E E v l a a a a a a a l v 6 6 - - A A w w w q 9 9 9 9 9 < , X O V.m ",
"t.b ` ( J J v h a a a a a g h v v h h h j a q 6 6 6 - - I E J J h g a a h h h h h a p 6 6 - - A A q q q w q 9 9 q q < , O X V.m ",
"t.m ` ( v v v h a a a a a l v v l v v l l 6 6 6 6 6 - # I E v v a a a a v v v v v 6 6 6 6 - - A A 7 9 9 q i q 9 w w < , O O V.M ",
"a.m ` ( h h h h h a 9 9 9 p p v v p p i i 6 6 6 6 6 - - I E v v h g w w v g p p p 6 6 6 6 - - A A q q 1 4 3 6 q 6 6 , , O O V.m ",
"a.m ` ( a a a h v p 6 6 6 6 6 v v 6 6 6 6 6 6 6 6 6 - * I E l v v l 6 6 v p 6 6 6 6 6 6 6 - = A A w q , , , 6 w < , , , O O V.m ",
"f.m ` ( l l l a 6 6 6 6 6 6 6 6 6 6 6 6 6 6 6 6 6 6 # # v v v v 6 6 6 6 6 6 6 6 6 6 6 6 6 # # p r < < , , , , < , , , , O O V.m ",
"g.m -.( l v v p 6 6 6 6 6 6 6 6 6 6 6 6 6 6 6 6 6 6 # # j v v v 6 6 6 6 6 6 6 6 6 6 6 6 6 @ # w w , , , , , , , < , , , O O V.m ",
"g.m # - 6 6 6 6 6 6 6 6 6 6 6 6 6 6 6 6 6 6 6 6 > # # # # # 6 6 6 6 6 6 6 6 6 6 6 6 6 # # # # < < , , , , , , , , , # # O O N.m ",
"l.b # # 6 6 6 6 6 6 6 6 6 6 6 6 6 6 6 6 6 6 6 6 : # # # # @ 6 6 6 6 6 6 6 6 6 6 6 6 6 # # @ # , , , , , < < , , , , # # O O N.m ",
"l.B # # O O O O O O O O O O O O O O O O O O O O O O O O O O O O O O O O O O O O O O O O O O O O O O O O O O O O O O O O . O N.m ",
"l.B # # O O O O O O O O O O O O O O O O O O O O O O O   O O   O O O O O O O O O O O O O .   O O O O O O O O O O O O O O   O N.N ",
"l.V.V.N.M.M.M.M.M.M.M.M.M.M.M.M.M.M.M.M.M.M.M.M.M.M.M.M.M.M.M.M.M.M.M.M.M.M.M.M.M.M.M.M.M.M.M.M.M.M.M.M.M.M.M.M.M.M.M.M.M.M.N.N ",
"B B B B B B B B B B B B B B B B N N N N N N N N N N N N N N N N N N N N N N N N N N N N B N N N N N N N N N N N N N N N N N N b "
};
