/* XPM */
static char *_e73257a85504778aa1debc82cf7a051NxizgniLUEnaxbbT[] = {
/* columns rows colors chars-per-pixel */
"64 64 126 2 ",
"   c #3D4947",
".  c #3E4A4A",
"X  c #404A4B",
"o  c #424F55",
"O  c #435056",
"+  c #5F5F5F",
"@  c #60625F",
"#  c #4B5C63",
"$  c #4F6067",
"%  c #4E6269",
"&  c #51626A",
"*  c #566C72",
"=  c #5C6E72",
"-  c #5F7077",
";  c #54747B",
":  c #59727A",
">  c #5D797D",
",  c #656565",
"<  c #686667",
"1  c #666867",
"2  c #676769",
"3  c #6B6A6B",
"4  c #617077",
"5  c #607178",
"6  c #617A7F",
"7  c #757575",
"8  c gray47",
"9  c #5E7D85",
"0  c #5E7F88",
"q  c #617A81",
"w  c #607E88",
"e  c #5F8089",
"r  c #6B8387",
"t  c #67858D",
"y  c #69868D",
"u  c #67888F",
"i  c #75868E",
"p  c #668790",
"a  c #688690",
"s  c #678891",
"d  c #6D8D95",
"f  c #6E8F98",
"g  c #738D95",
"h  c #7A8B93",
"j  c #738F9A",
"k  c #6F9097",
"l  c #6F9099",
"z  c #709196",
"x  c #729199",
"c  c #79969E",
"v  c #7995A0",
"b  c #7A9AA5",
"n  c #7C9DAA",
"m  c #979797",
"M  c #9C9C9C",
"N  c #84A2AC",
"B  c #83A7B3",
"V  c #84A8B6",
"C  c #8BABB7",
"Z  c #84A8B8",
"A  c #8AACB8",
"S  c #8DADB8",
"D  c #8FADB8",
"F  c #8CAEB8",
"G  c #8EAEB9",
"H  c #8DADBA",
"J  c #8DAFBB",
"K  c #8EAEBB",
"L  c #8DAEBD",
"P  c #8EAEBD",
"I  c #8EAEBA",
"U  c #91A9B5",
"Y  c #91ACB5",
"T  c #91ACB7",
"R  c #92ADB8",
"E  c #93AEB9",
"W  c #95ADB9",
"Q  c #94AFBA",
"!  c #94AEBB",
"~  c #96AEBA",
"^  c #90ADBD",
"/  c #95B0BB",
"(  c #A0A0A0",
")  c gray63",
"_  c #A2A2A2",
"`  c gray64",
"'  c #A4A4A4",
"]  c #A6A6A4",
"[  c #A7A7A7",
"{  c #A4A4A4",
"}  c #A9A9A7",
"|  c gray66",
" . c #A9A9A9",
".. c #AAAAAA",
"X. c gray67",
"o. c #ABABAD",
"O. c #ACACAC",
"+. c #AEAEAE",
"@. c #AFAFAF",
"#. c #ABACAB",
"$. c #B0AEAF",
"%. c gray69",
"&. c #B1B1B1",
"*. c #B2B2B2",
"=. c #B2B2B2",
"-. c #9AB6C1",
";. c #9CB8C4",
":. c #9DB9C5",
">. c #9CB8C6",
",. c #9DBBC6",
"<. c #9EBAC6",
"1. c #9FBBC7",
"2. c #9DBAC6",
"3. c #9FBBC9",
"4. c #A2BDC8",
"5. c #A5BFCC",
"6. c #A0BCC8",
"7. c #A5C0CB",
"8. c #A6C1CC",
"9. c #C4C4C4",
"0. c #CBCBCB",
"q. c #CACCCB",
"w. c #CDCBCC",
"e. c gray80",
"r. c #CDCDCD",
"t. c #CCCCCC",
/* pixels */
"m M m m m m m m m m m m m M M _ _ _ _ M M M M M _ _ _ ' _ _ _ M M M M M M _ _ ' ' ' _ _ M M M M M M _ _ _ _ ' ' ' ........O.' , ",
"_ 8 7 7 7 7 7 7 7 7 7 7 7 7 7 7 7 7 7 7 7 7 7 7 7 7 7 7 7 7 7 7 7 7 7 7 7 7 7 7 7 7 7 7 7 7 7 7 7 7 7 7 7 7 7 7 7 7 7 7 7 7 q.+ ",
"m 3 * : Q Q Q Q Q Q Q Q Q Q / / Q Q Q Q Q Q Q Q Q Q Q Q y t % % k x <.<.<.<.<.<.<.<.<.<.<.<.<.<.<.<.<.<.<.<.<.<.<.<.h h   . 0., ",
"M 3 : > Q E E E T T T T T T T E T T T T T T T T T T E E y t % % x x <.<.<.<.<.<.<.<.<.<.<.<.<.<.<.<.<.<.<.<.<.<.<.<.h h . . 0., ",
"' 3 Q E n n n x t t t t t t t t t t t t t t t t t t n n a t . . Z Z Z Z Z b k k k x k k k x k k k k k k k k k k B Z h h . . 0., ",
"} 3 Q E n n n x t t t t t t t t t t t t t t t t t t b n t t . . Z Z B B B b k l k k k k k f f k k f f k k k k k B B h i . . r., ",
"o.3 Q T t t t t 9 t t t t t t t t t t t t y t t t t t t # # . . Z B k k k k k k k k k k k p p k f p s k k k k k l k & & . . r., ",
"..3 Q T t t t t t t t t t t y t y t t t t t t t t t t t # # . . Z B k k k k f k k k k k k d d x k d d k f k f k k k & & . . r., ",
"..3 / T t t t t t t t 9 9 t t t t 9 9 t t t t t t t t t # # . . Z B k k x k k k x k k k k k k k k k k k k k k k k k & & . . r., ",
"O., Q T t t t t t t t t t t t t t t t t t t t t t t t t # # . . Z B g k f k k f s k k k k k x f k k k k k k k k k l & & . . r., ",
".., Q T t t y t t t t t t t t t t t t t t t t t t t t t # # . . V B k f k k k s t f x k k k x f k k k k k k k k k k & & . . w., ",
".., Q U # # # : t t t t t t t t t t t t t t t t : # # # # # . X Z B & & & 9 k k f k k k x k k k k k k k f k q & & & & & . . w., ",
".., Q U # # # : t t t t t t t t t t t t t t t t : # # # # # . . Z B & % & q k k f f k k k k k k k k k k k k q & & & % & . . r., ",
"O., y t # # # # # # # # # # # # # # # # # # # # # # # # # # . . & & & & & & & & & & & & & & & & & & & & & & & % & & & & . . r., ",
"O.2 t t # # # # # # # # # # # # # # # # # # # # # # # # # # . . & & & & & & & & & & & & & & & & & & & & & & & & & & & & . . r., ",
"%., O O . . . . . . . . . . . . . . . . . . . . . . . . . . . . . . . . . . . . . . . . . . . . . . . . . . . . . . . . . . r., ",
"%.1 o O . . . . . . . . X . . . . . .   . . . . . . . . . . . . . . . . . . . . . . . . . . . . . . . . . . . . . . . . . . r., ",
"%., c c S S S S P S S S S u t . . 9 0 Z Z Z Z V Z Z Z Z Z Z Z Z Z Z Z Z Z Z B Z Z Z Z & & . . t y S S S P S S S S S S P . . r., ",
"%., b b S S S S S S S S S s t . . w t Z B Z B B Z B B B B B B B B B B B B B B B B Z Z * & . . y d P P S S S S S S S S S . . r., ",
"%., 8.4.c c c c c c c S S c c . . Z Z Z Z Z b k k k k k k k k k k k k k k k k k k B Z h h . . S P P S S N c v v c c c c . . r., ",
"$., 7.4.c c c c c v c A S c c . . Z Z B B B b k k x k k k k k k f f k k k k k k k B B h i . . S P S S S N c c c c c c v . . r., ",
"%., 5.4.c c c v c c c c c t t . . Z B k k k k k k k k k k k k k p s x k k k k k k k k & & . . S S c c c c c c c c c c c . . r., ",
"%., 7.4.c c g x c c c c v t t . . B B k k k k k f s k k k k k k d d k k s s s f k k l & & . . S S c c c c c x x c c c c . . r., ",
"O.< 7.4.c c d x v v c c c t t . . Z B k k x f k s t f k k k k k k k k k p p p d k k k & $ . . P S c c c c c x d c c v c . . r., ",
"$., 8.4.c c x x c c c v c t t . . Z B k k k k k f d k x f x k f k k k k d d d f k g k & & . . S S c c c c c x x c c c c . . r., ",
"O., 8.4.c c c c c c c c v t t . . Z B k k x x g k k k k f k k k k k k k k k f g k x k & & . . ^ S c v c c c c c c c c c . . r., ",
"O., 7.4.c c c c c g t t t t t . . Z B & & & q k k k k k k k k k k k k k k k k q & & & & & . . S C 4 - - r c c v c c c c . . r., ",
"%., 7.4.c c c c c f t t t t t . . Z B & & % q k k k k k k k k k k k k x k k k q & & & & & . . S A = = = r c c c c c c c . . r., ",
"%., v v t t t t t y t t t t t . . & & & & & & & & & & & & & & & & & & & & & & & & & & & & . . 5 5 = = = = - - - - - - - . . r., ",
"%., c c t t t t t t t t t t t . . & % & % & & & & & & & & & & & & & % & & & & & & & & & & . . = = = = = = = = = = = = = . . r., ",
"%., O O . . . . . . . . . . . . . . . . . . . . . . . . . . . . . . . . . . . . . . . . . . . . . . . . . . . . . . . . . . r., ",
"%.1 O O . . . . . . . . . . . . . . . . . . . . . . . . . . . . . . . . . . . . . . . . . . . . . . . . . . . . . . . . . . r., ",
"%.1 k l Z Z Z Z Z Z Z Z Z Z Z Z Z Z Z Z Z Z Z Z Z Z Z Z 0 9 . . ; ; n n n n n n n n n n n n n n n n n n n n n n n n ; ; . . r., ",
"%.1 x x Z Z Z B B B B B B B B B B B B B B B B B B B Z Z e 9 . . ; ; n n n n n n n n n n n n n n n n n n n n n n n n ; ; . . r., ",
"%., 1.<.Z Z Z b k k k k k k k k k k k k k k k k k k B Z x k . . n n n n n x t y t t t t t t t t t t t t t t t t n n a y . . r., ",
"=.1 4.<.B B V b k k k k k k k k k k k k k f f k k k B B f f . . n n n n n x t t t t t t t t t t t t t t t t t t b n t t . . r., ",
"%., 1.<.x k k k k s p f k k k k k k k x f p p p s l k k & & . . n n t t t t t t t t t t t 9 9 t t t t t y t t t t t # # . . r., ",
"%., 4.<.k k k x x f d k k f k k k k k k k d f d f k k k & & . . n n t t t t t t t t t t t t t t t t t t t t t t t t # # . . r., ",
"=., <.<.k k k k k k k k k k k k k k k k k k k k k l k k & & . . n n t t t t y t t t t t t t t t t t t t t 9 t t t t # # . . 0., ",
"=.1 <.<.g k f k k k k k x d s k k k k x k k k k k k g k & % . . n n t t t t t t t t t t t t t t t t t t t t t t y t # # . . r., ",
"%., <.<.k g k k k f k k k s p g k k k k l k k k k k k k & & . . n n t t t y t t t 9 9 t t t t t t w 9 t t t y t t t # # . . r., ",
"%., 3.-.& & & 6 l k k k l f k k k k k k f p d z q & & & & & . . n b # # # : t y t t t t t t t t t t t t t t : # # # # # . . r., ",
"O., <.-.& & & q k f k x k k k k k k k k f p d k q & & & & & . . n b # # # : t t t t t t t t t t t t t t t t : # # # # # . . r., ",
".., x x % & & & & & & & & & & & & & & & & & & & & & & & & & . . # # # # # # # # # # # # # # # # # # # # # # # # # # # # . . 0., ",
".., k f & & & % % & & & & & % & & % & & % & & & & & % & & & . . # # # # # # # # # # # # # # # # # # # # # # # # # # # # . . r., ",
"' , O o . . . . . . . . . . . . . . . . . . . . . . . . . . . . . . . . . . . . . . . . . . . . . . . . . . . . . . . . . . r., ",
"' , O O . . . . . . . . . . . . . . . . . . . . . . . . . . . . . . . . . . . . . . . . . . . . . . . . . . . . . . . . . . e., ",
"' , f x Z Z Z Z Z Z Z Z Z 0 9 . . t y P S S S S S S S S S S S S S S S S S S S S P S S y t . . 9 0 V Z Z Z Z Z Z Z B Z Z . . 0., ",
"_ , x x B B B B B B B V Z 0 9 . . y s S S S S S S S S S S S S S S S S S S S S S S S S s y . . 0 t B Z Z B B B B B B Z B . . r.3 ",
"_ , <.<.k k k k k g f B Z x k . . S S S P S N c c c c c c c c c c c c c c c c c c S S c c . . Z Z Z Z Z b f k k g k k k . . r., ",
"_ , 3.<.k f k k f k f B B k f .   P S S S S N c c c c c c c c c c c c c c c c c c A S c c . . Z V B B B b l k k k k f f . . r., ",
"_ , <.<.f k k d a d x x k & & . . S S c c c x d d d c c c c c c c c c c c x d j c c c 4 = . . Z B k k l k k k k k k s p . . r., ",
"_ , <.<.k k s s d f k k k & & . . S S c c c x x x x c c c c c c x x c c c x x x c c c - = . . Z B k k f f s f k k x d d . . r., ",
"_ , <.<.k f p d k k k k f & & . . S S c c c v c c c c c c c c c d f v c c c c c c c c - = . . Z B k k k s p d k k k l k . . r., ",
"' , <.<.k k d f k k k k k & & . . S S c c c c c c c x g c c c c x x c c c c c c c c c - = . . Z B k k k f d f k k k k k . . r., ",
"' , 3.<.k k k f k k k k l & & . . S S c c c c c c v f d c c c c c c c c c c c c c c c - = . . Z B k k g k k k k k k k f . . 0., ",
"' , 4.<.k f k k k q & & & & & . . S C - - - r c c c c c c c c c c c c c c c c r - - - = = . . Z B & & & q k x k x k k k . . r., ",
".., <.;.k f g g k q % & & & & . . S A = = = r c c c c c c c c c c c c c c c c r = = = = = . . Z B % & $ q k k k k k k k . . r., ",
".., x x & & & & & & & & & & & . . 5 5 = = = = 4 - - - - - - - - - - - - - - - = = = = = = . . & & & & & & & & & & & & & . . 0., ",
"O., k f & & & & & & & & & % & . . = = = = = = = = = = = = = = = = = = = = = = = = = = = = . . & & & & & & & & & & & & & . . 0., ",
"O.3 . . . . . . . . . . . . . . . . . . . . . . . . . . . . . . . . . . . . . . . . . . . . . . . . . . . . X . . . . . . . 0., ",
"O.3 . . . . . . . . . . . . . . . . . . . . . . . . . . . . . . . . . . . . . . . . .   . . . . . . . . . . . . . . . . . . 0.3 ",
"O.r.r.0.9.9.9.9.9.9.9.9.9.9.9.9.9.9.9.9.9.9.9.9.9.9.9.9.9.9.9.9.9.9.9.9.9.9.9.9.9.9.9.9.9.9.9.9.9.9.9.9.9.9.9.9.9.9.9.9.9.9.0.3 ",
"3 3 3 3 3 3 3 3 3 3 3 3 3 3 3 3 3 3 3 3 3 3 3 3 3 3 3 3 3 3 3 3 3 3 3 3 3 3 3 3 3 3 3 3 3 3 3 3 3 3 3 3 3 3 3 3 3 3 3 3 3 3 3 @ "
};
