/* XPM */
static char *c3bcfcd0bce843fbcc6fe82ef369843dqLMRMm9jEi4EtBXl[] = {
/* columns rows colors chars-per-pixel */
"64 64 127 2 ",
"   c #5D4D3D",
".  c #5E5E5E",
"X  c #665F55",
"o  c #685F54",
"O  c #676056",
"+  c #686157",
"@  c #65605A",
"#  c #6D675B",
"$  c #6E685C",
"%  c #746C5F",
"&  c #7A6B5B",
"*  c #646464",
"=  c #676769",
"-  c #686868",
";  c #766F64",
":  c #7B6F63",
">  c #777065",
",  c #7C7164",
"<  c #7D756A",
"1  c #747474",
"2  c #837565",
"3  c #82766A",
"4  c #86796A",
"5  c #8A7D6D",
"6  c #847E72",
"7  c #887E74",
"8  c #8F806D",
"9  c #90816E",
"0  c #8E8272",
"q  c #8E887C",
"w  c #958575",
"e  c #948876",
"r  c #998A75",
"t  c #978778",
"y  c #968979",
"u  c #998C7C",
"i  c #9D907D",
"p  c #A2937E",
"a  c #978F83",
"s  c #9D9281",
"d  c #9E9E9E",
"f  c #A59681",
"g  c #A79883",
"h  c #AD9E87",
"j  c #A69B89",
"k  c #AC9D8A",
"l  c #ADA18B",
"z  c #ABA08E",
"x  c #ADA08D",
"c  c #AFA08D",
"v  c #AEA18E",
"b  c #AFA08D",
"n  c #B1A28F",
"m  c #B2A38E",
"M  c #B4A38F",
"N  c #B1A58D",
"B  c #B3A48D",
"V  c #B1A58F",
"C  c #B3A48F",
"Z  c #B3A48F",
"A  c #AFA291",
"S  c #AFA794",
"D  c #AFA492",
"F  c #B0A392",
"G  c #B1A692",
"H  c #B4A590",
"J  c #B1A694",
"K  c #B2A795",
"L  c #B4A796",
"P  c #B1A392",
"I  c #B4A997",
"U  c #B6A996",
"Y  c #B5A895",
"T  c #B5AA98",
"R  c #B8AB98",
"E  c #BCAF9C",
"W  c #BCAF9C",
"Q  c #BDB09D",
"!  c #BCB09D",
"~  c #A0A0A0",
"^  c gray63",
"/  c #A2A2A2",
"(  c gray64",
")  c #A4A4A4",
"_  c #A5A5A5",
"`  c gray65",
"'  c #A7A7A7",
"]  c gray65",
"[  c gray66",
"{  c #A9A9A9",
"}  c #ABA9AA",
"|  c #AAAAAA",
" . c gray67",
".. c #ABABAD",
"X. c #ABADAC",
"o. c #ACACAC",
"O. c #ACAEAD",
"+. c #AEAEAE",
"@. c #AFAFAF",
"#. c #ACACAC",
"$. c #B0AEAF",
"%. c gray69",
"&. c #B1B1B1",
"*. c #B2B2B2",
"=. c gray70",
"-. c #B3B5B4",
";. c #B4B4B4",
":. c gray71",
">. c #B5B7B6",
",. c #B6B6B6",
"<. c #B7B7B7",
"1. c #B4B4B4",
"2. c #B7B9B8",
"3. c #B8B8B8",
"4. c #C0B5A3",
"5. c #C6C6C6",
"6. c #C9C9C7",
"7. c #C6C6C8",
"8. c #CDCDCB",
"9. c gray80",
"0. c #CDCDCD",
"q. c #CECCCD",
"w. c #CCCDCF",
"e. c #CDCDCF",
"r. c #CECECE",
"t. c #CDCDCD",
"y. c #D2D2D1",
/* pixels */
"d ^ d ^ ^ d d d d d ^ ^ ^ ) ) ) ) ) ) ) ) ) ) ) [ [ [ [ [ [ ) ) ^ ^ ^ ) ) [ ..[ [ [ [ ) ) ) ) ) ) ) ) ) [ [ @.@.@.@.%.@.%.%.X.. ",
") 1 1 1 1 1 1 1 1 1 1 1 1 1 1 1 1 1 1 1 1 1 1 1 1 1 1 1 1 1 1 1 1 1 1 1 1 1 1 1 1 1 1 1 1 1 1 1 1 1 1 1 1 1 1 1 1 1 1 1 1 1 9.. ",
"d = 5 y J J J J J J J J J J J J J J J J J J J J J G J J w 7 2 2 w f E E E E E E Q E E E E E E E E Q Q E E E E E E E a q     9.. ",
"^ = y i x l x j j j j j j j j j j j j j j j j j j j z x w 5 & & u f R R R L F F G F F A F F F F F F F F F F F F I R a q     9.* ",
"[ = J x f f f w 5 5 5 5 5 5 5 5 5 5 5 5 5 5 5 5 5 5 i f w 5     h h h h h u w w w w w w w w w w w w w w w w w w g h u q     9.= ",
"@.= S k u u u w 4 5 5 5 5 5 5 5 5 5 5 5 5 5 5 5 5 5 y u 4 2     h h f f f u w w w w w w w w w w w w w w w w w w f f 0 6     9.* ",
"%.- J j 5 5 5 4 2 4 5 5 5 5 5 5 5 5 5 5 5 5 5 5 5 5 5 5 # O     h f w w w w w w w w w w w 5 5 w w 5 5 w w w w w w w % #     9.* ",
"%.= J j 5 5 5 4 4 5 5 4 4 5 5 5 5 4 4 5 5 5 5 5 5 5 5 5 # O     h f w w w w w w w w w w w w w w w w w w w w w w w w % #     8.* ",
"%.= J j 5 5 5 5 5 5 5 4 2 5 5 5 5 2 4 5 5 5 5 5 5 5 5 5 # O     h f w w w w w w w w w w w w w w w w w w w w w w w w % #     9.* ",
"%.= J j 5 5 5 5 5 5 5 4 4 5 5 5 5 4 4 5 5 5 5 5 5 5 5 5 # O     h f w w w w w w w w w w w w w w w w w w w w w w w w % #     9.@ ",
"@.= J j 5 5 5 5 5 5 5 5 5 5 5 5 5 5 5 5 5 5 5 5 5 5 5 5 # O     h f w w w w w 5 5 w w w w w w w w w w w w w w w w w ; #     9.* ",
"@.= J s # # # < 5 5 5 5 5 5 5 5 5 5 5 5 5 5 5 5 : # # # + O     h u % % % 5 w w w w w w w w w w w w w w w w 3 % % % # #     9.* ",
"$.= J s O O O , 5 5 5 5 5 5 5 5 5 5 5 5 5 5 5 5 % O O O O O     h u # # # 4 w w w w w w w w w w w w w w w w , # # # # #     9.* ",
"%.= w 4 O O O # # # # # # # # # # # # # # # # # + O X X X O     , ; # # # % % % % % % % % % % % % % % % % % % # # # # #     9.* ",
"-.= 5 2 O O O X + O O O O O O + O O O O O O O O O + @ O O O     # # # # # # # # # $ # # # # # # $ $ # # # # # # # $ # #     9.* ",
":.= # o                                                                                                                     9.* ",
":.= # o                                                                                                                     9.* ",
":.= u f H C C C C C C m C w 5     2 9 h h h h h h h h h h h h h h h h h h h h h h h h , #     5 e C C C C C C C C m M C     9.* ",
":.= j j h h k h h h h m C y 0     9 r h h h g f g f f f f f f f f g f f f f f f f h h 4 >     e i H C H x j h h h h h h     9.* ",
":.= 4.T u u u u u u u k C s u     h h h h h u w w w w w w w w w w w w w w w w w w g h u q     C C C C C f u u u u u u u     9.* ",
":.= Q T u u u u u u u j h u w     h h f f f u w w w w w w w w w w w w w w w w w w f f 0 6     C m h h h f u u u u u u u     9.* ",
":.= 4.T u u u u u u u u u 5 5     h f w w w w w w w w w w w w w 5 5 w w w w w w w w w % #     m h u u u u u u u u u u u     9.* ",
":.= 4.T u u w y u u u u u 5 5     h f w w w w w w w w w w w w w w w w w w w w w w w w % #     C h u u u u u y w u u u u     9.* ",
":.= 4.I u y w y u u u u u 0 5     h f w w w w w w 5 w w w w w w w w w w 5 5 5 w w w w % $     C h u u u u u w 0 y u u u     9.* ",
":.= 4.T u u y u u u u u u 5 5     h f w w w w w w w w w w w w w w w w w w w w w w w w % #     C h u u u u u y e u u u u     9.* ",
":.= 4.I u u u u u u u u u 5 5     h f w w w w w w w w w w w w w w w w w w w w w w w w % #     C j u u u u u u u u u u u     9.* ",
":.= 4.I u u u u u w 5 5 5 5 5     h i % % % 5 w w w w w w w w w w w w w w w w 3 % % % # #     C f < < < 0 u u u u u u u     9.* ",
":.= 4.I u u u u u 0 4 5 5 5 5     h u # # # 4 w w w w w w w w w w w w w w w w , # # # # #     C f ; ; ; 0 u u u u u u u     9.* ",
":.= f u 5 5 0 5 5 5 5 5 5 5 5     , % # $ # % % % % % % % % % % % % % % % % % % # # $ # #     4 < ; ; ; < < < < < < < <     9.* ",
":.* u w 5 5 5 5 5 5 5 5 5 5 5     # # # # # # # # # # # # # # # # # # # # # # # # # # # #     ; ; ; ; ; ; ; ; ; ; > ; ;     9.@ ",
"3.= # o                                                                                                                     9.* ",
"3.= # o                                                                                                                     9.* ",
"3.= w u h h h h h h h h h h h h h h h h h h h h h h h h 5 2     & 4 f f f f f f f f f f f f f f f f f f f f f f f f 2 &     9.* ",
"3.= f f h h h g f f f f f f f g f g f f f f g g f f h h 9 4     4 0 f f f p u u u u u u u u u u u u u u u u u u p f 4 ,     9.* ",
"3.= Q R h h h u w w w w w w w w w w w w w w w w w w g h u w     p f f f f w 5 5 5 5 5 5 5 5 5 5 5 5 5 5 5 5 5 5 i f 0 5     9.* ",
"3.= E I f f f u w w w w w w w w w w w w w w w w w w f f w 5     f f u u u w 5 5 5 5 5 5 5 4 4 5 5 5 5 5 5 5 5 5 y u 4 2     9.* ",
"3.= E F w w w w w w 5 w w w w w w w w w w 5 5 5 w w w w % #     f u 5 5 5 5 5 5 5 5 5 5 5 2 2 5 5 5 5 5 5 5 5 5 5 5 # O     9.* ",
"3.= W F w w w w w w w w w w w w w w w w w w w w w w w w % #     p u 5 5 5 5 5 5 5 5 5 5 5 4 4 5 5 5 5 5 4 4 4 5 5 5 # O     9.* ",
"3.= E D w w w w w w w w w w w w w w w w w w w w w w w w ; #     p u 5 5 5 5 5 5 5 5 5 5 5 5 5 5 5 5 5 5 4 2 4 5 5 5 # O     9.* ",
"3.= ! D w w w w w w w w w w w w w w w w w w w w w w w w % #     p u 5 5 5 5 5 5 5 4 4 5 5 5 5 5 5 4 4 5 4 4 5 5 5 5 # O     9.* ",
"3.= E F w w w w w w w w w 5 5 w w w w w w w w w w w w w % #     f u 5 5 5 5 5 5 5 4 2 5 5 5 5 5 4 2 4 5 5 5 5 5 5 5 # O     9.* ",
":.= Q j % % % 5 w w w w w w w w w w w w w 5 w w 3 % % % # #     f e # # # 2 5 5 5 5 5 5 5 5 5 5 5 5 5 5 5 5 : # # # O O     9.* ",
"%.= Q j # # # 4 w w w w w w w w w w w w w 5 w w , # # # # #     f w O O O , 5 5 5 5 5 5 5 5 5 5 5 5 5 5 5 5 % O @ O O O     9.* ",
"@.= u 0 $ # # % % % % % % % % % % % ; % % ; ; ; % $ # $ # #     % # O O O # # # # # # # # # # # # # # # # # + @ X O O O     9.* ",
"@.= w 5 # # # # # $ # # # # # # # # $ # # # # # # # # # $ #     O O O O O O O O O O O O O O O O O O O O O O X O X O @ O     9.* ",
"[ = # o                                                                                                                     9.* ",
"[ * # o                                                                                                                     9.* ",
"[ * w u h h h h h h h h h 5 2     5 w C C C C C C C C C C C M G M C C C C C C C C C H w 5     2 8 h h h h h h h h h h h     9.* ",
") * s f f f f f f f f h h 8 4     w i C C C x h h h h h h h h h h h h h h h h h h m C y 0     8 r h h h g g f f f f f g     9.* ",
") * E F w w w w w w w g h u w     C C C C H f u u u u u u u u u u u u u u u u u u k C s u     h h h h h u w w w w w w w     9.* ",
") * E F w w w w w w w f f 0 5     C m h h h s y y y u u u u u u u u u u u u y u u j h y 0     h h f f f u w w w w w w w     9.* ",
") * E G w w w w 5 w w w w % #     C h u u u w w 0 w y u u u u u u u u u u e w y u u u < ;     h g w w w w w w w w w 5 5     9.* ",
") * E F w w w w w w w w w % #     C h u u u y y y y u u u u u u w y u u u y y u u u u < ;     h f w w w w w w w w w w w     9.* ",
") * Q A w w 5 w w w w w w % #     C h u u u u u u u u u u u u u w w u u u u u u u u u < ;     h f w w w w 5 w w w w w w     9.* ",
"[ = W A w w w w w w w w w % #     C h u u u u u u u y w u u u u y y u u u u u u u u u < >     h f w w w w w w w w w w w     9.* ",
"[ * W F w w w w w w w w w % #     C h u u u u u u u w w y u u u u u u u u u u u u u u < ;     h f w w w w w w w w w w w     9.* ",
"[ * Q F w w w w w 3 % % % # #     C f < < < 0 u u u u y u u u u u u u u u u u 7 < < < > ;     h i % % % 5 w w w w w w w     9.* ",
"@.= E F w w w w w , # # # # #     H f ; ; ; 0 u u u u u u u u u u u u u u u u 4 ; ; ; ; ;     h u # # # 4 w w w w w w w     9.* ",
"@.* u w % % % % % % # # # # #     4 < ; ; > < < < < < < < < < < < < < < < < < , ; ; ; ; ;     , ; # # # % % % % ; % % %     9.* ",
"%.* w 5 # # # # # # # # # # #     ; ; ; ; > ; ; ; ; > > ; ; ; ; ; ; ; ; ; ; ; ; ; ; ; ; ;     # # # # # # # # # # # # #     8.* ",
"%.-                                                                                                                         9.= ",
"%.-                                                                                                                         9.= ",
"2.y.y.6.5.5.5.5.5.5.5.5.5.5.5.5.5.5.5.5.7.5.5.5.5.5.5.5.5.5.5.5.5.5.5.5.5.5.5.5.5.5.5.5.5.5.5.5.5.5.5.5.5.5.5.5.5.5.5.5.5.5.6.= ",
"- - - = - - - - - - - - - - - - = = = = = = = = = = = = = = = = = = = = = = = = = = = = = = = = = = = = = = = = = = = = = = = . "
};
