/* XPM */
static char *_1a64af1ca3840baf391aee4e005ce24rwUozjKrM9f8chtK[] = {
/* columns rows colors chars-per-pixel */
"80 80 79 1 ",
"  c black",
". c #010000",
"X c #000100",
"o c #010100",
"O c #010101",
"+ c #030000",
"@ c #020100",
"# c #020001",
"$ c #000200",
"% c #010200",
"& c #000201",
"* c #020200",
"= c #030200",
"- c #030102",
"; c #020202",
": c #040000",
"> c #040001",
", c #060002",
"< c #000004",
"1 c #010004",
"2 c #010005",
"3 c #020005",
"4 c #30776F",
"5 c #2F7471",
"6 c #2F7773",
"7 c #2F7575",
"8 c #2D7873",
"9 c #2E7974",
"0 c #2F7A75",
"q c #307572",
"w c #317673",
"e c #307773",
"r c #327774",
"t c #317576",
"y c #317777",
"u c #327677",
"i c #317870",
"p c #317A71",
"a c #307874",
"s c #317874",
"d c #317975",
"f c #327975",
"g c #337A76",
"h c #387F77",
"j c #337778",
"k c #357D79",
"l c #397E7B",
"z c #3A7F7C",
"x c #397D7E",
"c c #D5CBEE",
"v c #D7CBEF",
"b c #D9CAF1",
"n c #DACBF2",
"m c #D9CDF5",
"M c #DED2F6",
"N c #DFD0F9",
"B c #DED2FA",
"V c #E1D1F6",
"C c #E0D2F6",
"Z c #E0D1F8",
"A c #E1D1F8",
"S c #E2D0F8",
"D c #E3D1F9",
"F c #E1D2F9",
"G c #E2D2F9",
"H c #E3D1FB",
"J c #E1D2FB",
"K c #E2D3FA",
"L c #E3D3FA",
"P c #E4D2FA",
"I c #E5D3FB",
"U c #E0D4F8",
"Y c #E3D5F9",
"T c #E2D6FA",
"R c #E3D7FB",
"E c #E4D4F9",
"W c #E4D4FB",
"Q c #E1D5FD",
"! c #E4D5FC",
/* pixels */
"                                                                                ",
"                                                                                ",
"                                                                                ",
"                                                                                ",
"                                                                                ",
"                                                                                ",
"                                                                                ",
"                                                                                ",
"                                                                                ",
"                                                                                ",
"                                                                                ",
"                                                                                ",
"                                                                                ",
"                                                                                ",
"                                                                                ",
"                                                                                ",
"                                                                                ",
"                                        <<<<<<<<<<<<<<<<<<<<<<<<<<<<<<<<<<<<<<<<",
"                                                                                ",
"                                        >>   >                                  ",
"JJJJJJJJJJJJJJJJJJJJJJJJJJJJJJJJJJBJBBQmk5ss999999999999999999999999999999999999",
"JPPPJJJJPPPPJJJJJPPPJJJJPPPPJJJJPJJWJJ!bzyjyyy7yyyyyyyyyyyyyyyyyyyyyyyyyyyyyyyyy",
"JJPJJJJJPPJJJJPPJJPJJJJJPPJJJJPPPJJWJJ!bh4ii4i4iiiiiiiiiiiiiiiiiiiiiiiiiiiiiiiii",
"JJPPPJJJPPJJJJPPJJPPPJJJPPJJJJPPWCCRMRRclryyryrsyyyyryyyryyyyyyyyyyyyyyyyyyyryyy",
"JJJJJJJJJJJJJJJJJJJJJJJJJJJJJJJJJJJJCJRvz5srsrs5ssssssssssssssssssssssssssssssss",
"JJJJJJJJJJJJJJJJJJJJJJJJJJJJJJJJJJJJCJRvz5srsrsrssssssssssssssssssssssssssssssss",
"JJJJJJJJJJJJJJJJJJJJJJJJJJJJJJJJJJJJJJRvz5srsrsrssssssssssssssssssssssssssssssss",
"JJJJJJJJJJJJJJJJJJJJJJJJJJJJJJJJJJJJJJRvz5srsrsrssssssssssssssssssssssssssssssss",
"JJJJJJJJJJJJJJJJJJJJJJJJJJJJJJJJJJJJJJRcz5srsrsrssssssssssssssssssssssssssssssss",
"JJJJJJJJJJJJJJJJJJJJJJJJJJJJJJJJJJJJJJRcz5srsrsrssssssssssssssssssssssssssssssss",
"JJJJJJJJJJJJJJJJJJJJJJJJJJJJJJJJJJJJCJRcz5srsrsrssssssssssssssssssssssssssssssss",
"JJJJJJJJJJJJJJJJJJJJJJJJJJJJJJJJJJJJCJRcz5srsrsrssssssssssssssssssssssssssssssss",
"JJJJJJJJJJJJJJJJJJJJJJJJJJJJJJJJJJJPCJRcz5srsrs5ssssssssssssssssssssssssssssssss",
"JJJJJJJJJJJJJJJJJJJJJJJJJJJJJJJJJJJPCJRcz5srsrsrssssssssssssssssssssssssssssssss",
"JJJJJJJJJJJJJJJJJJJJJJJJJJJJJJJJJJJPJJRcz5srsrsrssssssssssssssssssssssssssssssss",
"JJJJJJJJJJJJJJJJJJJJJJJJJJJJJJJJJJJPJJRcz5srsrsrssssssssssssssssssssssssssssssss",
"JJJJJJJJJJJJJJJJJJJJJJJJJJJJJJJJJJJJJJRcz5srsrsrssssssssssssssssssssssssssssssss",
"JJJJJJJJJJJJJJJJJJJJJJJJJJJJJJJJJJJJJJRcz5srsrsrssssssssssssssssssssssssssssssss",
"JJJJJJJJJJJJJJJJJJJJJJJJJJJJJJJJJJJJCJRcz5srsrsrssssssssssssssssssssssssssssssss",
"JJJJJJJJJJJJJJJJJJJJJJJJJJJJJJJJJJJJCJRcz5srsrsrssssssssssssssssssssssssssssssss",
"JJJJJJJJJJJJJJJJJJJJJJJJJJJJJJJJJJJPJJRcz5sr9rs5ssssssssssssssssssssssssssssssss",
"JJJJJJJJJJJJJJJJJJJJJJJJJJJJJJJJJJJJJJRcl5srsrsrssssssssssssssssssssssssssssssss",
"JJJJJJJJJJJJJJJJJJJJJJJJJJJJJJJJJJJJJJRcz5srsrsrssssssssssssssssssssssssssssssss",
"JJJJJJJJJJJJJJJJJJJJJJJJJJJJJJJJJJJJJJRcz5srsrsrssssssssssssssssssssssssssssssss",
"JJJJJJJJJJJJJJJJJJJJJJJJJJJJJJJJJJJPCJRcz5srsrsrssssssssssssssssssssssssssssssss",
"JJJJJJJJJJJJJJJJJJJJJJJJJJJJJJJJJJJPCJRcz5srsrsrssssssssssssssssssssssssssssssss",
"JJJJJJJJJJJJJJJJJJJJJJJJJJJJJJJJJJJPCJRcz5srsrsrssssssssssssssssssssssssssssssss",
"JJJJJJJJJJJJJJJJJJJJJJJJJJJJJJJJJJJPCJRcz5srsrsrssssssssssssssssssssssssssssssss",
"JJJJJJJJJJJJJJJJJJJJJJJJJJJJJJJJJJJJJJRcz5srsrsrssssssssssssssssssssssssssssssss",
"JJJJJJJJJJJJJJJJJJJJJJJJJJJJJJJJJJJJJJRcz5srsrsrssssssssssssssssssssssssssssssss",
"JJJJJJJJJJJJJJJJJJJJJJJJJJJJJJJJJJJJJJRcz5s5srsrssssssssssssssssssssssssssssssss",
"JJJJJJJJJJJJJJJJJJJJJJJJJJJJJJJJJJJJJJRcz5srs5srssssssssssssssssssssssssssssssss",
"JJJJJJJJJJJJJJJJJJJJJJJJJJJJJJJJJJJJJJRcz5srsrsrssssssssssssssssssssssssssssssss",
"JJJJJJJJJJJJJJJJJJJJJJJJJJJJJJJJJJJJJJRcz5srsrsrssssssssssssssssssssssssssssssss",
"JJJJJJJJJJJJJJJJJJJJJJJJJJJJJJJJJJJJJJRcz5srsrsrssssssssssssssssssssssssssssssss",
"JJJJJJJJJJJJJJJJJJJJJJJJJJJJJJJJJJJPJJRcz5srsrsrssssssssssssssssssssssssssssssss",
"PPPPJJJJPPJJJJPPJJJPPPJJPPPPJJJJWCCRMRRclryyryrsyyyryyyyyyyyyyyyyyyyyyyryyyryyyy",
"JPPPJJJJPPJJJJPPJJJJJPJJJPPPJJJJPCCWJJ!bh4ii4i4iiiiiiiiiiiiiiiiiiiiiiiiiiiiiiiii",
"JJPPJJJJJJJJPPPPJJJJPPPJJJPPJJJJPJCWJJ!bzyjyyy7yyyyyyyyyyyyyyyyyyyyyyyyyyyyyyyyy",
"JJJJJJJJJJJJJJJJJJJJJJJJJJJJJJJJJJBJBBQmk5ss999999999999999999999999999999999999",
"                                        >>   >                                  ",
"                                                                                ",
"                                        <<<<<<<<<<<<<<<<<<<<<<<<<<<<<<<<<<<<<<<<",
"                                                                                ",
"                                                                                ",
"                                                                                ",
"                                                                                ",
"                                                                                ",
"                                                                                ",
"                                                                                ",
"                                                                                ",
"                                                                                ",
"                                                                                ",
"                                                                                ",
"                                                                                ",
"                                                                                ",
"                                                                                ",
"                                                                                ",
"                                                                                ",
"                                                                                "
};
