/* XPM */
static char *_f2cb898faec43b29350ace8de8865c43o6z7gFYuXIPvvrW[] = {
/* columns rows colors chars-per-pixel */
"80 80 242 2 ",
"   c None",
".  c #1D1D18",
"X  c #1E2829",
"o  c #193239",
"O  c #2D2825",
"+  c #293C22",
"@  c #373B26",
"#  c #2B3235",
"$  c #333D3D",
"%  c #353D3C",
"&  c #482721",
"*  c #453435",
"=  c #663C30",
"-  c #374D2D",
";  c #44492F",
":  c #5F5D33",
">  c #745B3E",
",  c #406036",
"<  c #5A6C38",
"1  c #497139",
"2  c #706C38",
"3  c #264241",
"4  c #2D4F50",
"5  c #386050",
"6  c #165767",
"7  c #1D696B",
"8  c #106F7E",
"9  c #20656B",
"0  c #386A7D",
"q  c #404346",
"w  c #534447",
"e  c #4F5343",
"r  c #484358",
"t  c #4A5758",
"y  c #565B53",
"u  c #644E41",
"i  c #72544F",
"p  c #727D40",
"a  c #656D54",
"s  c #7A705E",
"d  c #5E4C6B",
"f  c #4A5B73",
"g  c #67526C",
"h  c #456A64",
"j  c #5A6061",
"k  c #596D6F",
"l  c #477A6E",
"z  c #6B696C",
"x  c #77746F",
"c  c #697A76",
"v  c #B83433",
"b  c #8C4D39",
"n  c #86702C",
"m  c #907D3A",
"M  c #E2593E",
"N  c #856550",
"B  c #967553",
"V  c #A96552",
"C  c #93746B",
"Z  c #807D7A",
"A  c #A77665",
"S  c #C65840",
"D  c #C97156",
"F  c #E16E4E",
"G  c #52803D",
"H  c #3A9A6E",
"J  c #5F8B45",
"K  c #7C9547",
"L  c #76A64B",
"P  c #578469",
"I  c #42867F",
"U  c #569879",
"Y  c #768662",
"T  c #758862",
"R  c #7D9875",
"E  c #7E947D",
"W  c #4AAC75",
"Q  c #41AE7D",
"!  c #64B978",
"~  c #A78A35",
"^  c #B49F34",
"/  c #D5BB39",
"(  c #83844B",
")  c #969E4D",
"_  c #AD8457",
"`  c #BC9857",
"'  c #8AB956",
"]  c #AAA04F",
"[  c #AAB05C",
"{  c #878664",
"}  c #929265",
"|  c #8E817D",
" . c #919D7F",
".. c #A2936D",
"X. c #A58472",
"o. c #BD9A7E",
"O. c #96B177",
"+. c #ACA972",
"@. c #B4AA75",
"#. c #D88751",
"$. c #C6A840",
"%. c #D59C64",
"&. c #C2B763",
"*. c #E0BC71",
"=. c #A3C360",
"-. c #F0E341",
";. c #D4D76B",
":. c #C1D67F",
">. c #EFE676",
",. c #11788D",
"<. c #127BAE",
"1. c #137CB5",
"2. c #167EBB",
"3. c #5B5E84",
"4. c #666184",
"5. c #657985",
"6. c #63709D",
"7. c #4270A0",
"8. c #896C8E",
"9. c #1C8A97",
"0. c #298E85",
"q. c #339E9A",
"w. c #1586A8",
"e. c #199AAD",
"r. c #1699BF",
"t. c #2086A7",
"y. c #2B92AD",
"u. c #2183B2",
"i. c #288DB9",
"p. c #3183B1",
"a. c #399EBB",
"s. c #33B2B3",
"d. c #5B8685",
"f. c #43968C",
"g. c #59809D",
"h. c #4B909B",
"j. c #5E9D93",
"k. c #7A8886",
"l. c #7D8D9C",
"z. c #759591",
"x. c #52AF9C",
"c. c #6DB08E",
"v. c #4584B3",
"b. c #5C89B8",
"n. c #7580A2",
"m. c #7D97A7",
"M. c #53B7AF",
"N. c #4BA4B0",
"B. c #50B9BB",
"V. c #71AFA6",
"C. c #64B7BE",
"Z. c #78C295",
"A. c #70C1AC",
"S. c #7CCDBE",
"D. c #1881C1",
"F. c #1C86C6",
"G. c #1D8FC6",
"H. c #1B8DCA",
"J. c #1A97D1",
"K. c #2C93C5",
"L. c #0EA9CE",
"P. c #17A1D8",
"I. c #13ACDC",
"U. c #39A3CB",
"Y. c #27B9C2",
"T. c #28B1D2",
"R. c #20B9DC",
"E. c #14B4E4",
"W. c #1EBEE9",
"Q. c #579DC1",
"!. c #42BBC9",
"~. c #40BDCA",
"^. c #40BDD6",
"/. c #7FBDC5",
"(. c #2DC0DA",
"). c #29C3EA",
"_. c #33C4EA",
"`. c #39C5E8",
"'. c #3FC5E8",
"]. c #4FC4D1",
"[. c #68C4CB",
"{. c #6BCCD7",
"}. c #7FD3DE",
"|. c #47C6E3",
" X c #5BC9E1",
".X c #90898C",
"XX c #889792",
"oX c #B8848D",
"OX c #81AD8D",
"+X c #91AB9F",
"@X c #A3A08D",
"#X c #A8B388",
"$X c #B7B59A",
"%X c #9582A6",
"&X c #839FBB",
"*X c #A487AF",
"=X c #B295AF",
"-X c #94A3A3",
";X c #9BBFB7",
":X c #A7B7A0",
">X c #B5BDA0",
",X c #A4B0B8",
"<X c #D4AA81",
"1X c #C4BE8A",
"2X c #DDAEA0",
"3X c #CBBFA1",
"4X c #C1B8B9",
"5X c #9CC384",
"6X c #BACD9B",
"7X c #94CFA1",
"8X c #94CEBD",
"9X c #BDC0A8",
"0X c #BBC5AD",
"qX c #C5CAAD",
"wX c #C7CEB2",
"eX c #DDC4B7",
"rX c #D1D3BD",
"tX c #D2D8BF",
"yX c #E1E7A6",
"uX c #88D1CE",
"iX c #92CED2",
"pX c #9FD0DF",
"aX c #ABC6C7",
"sX c #AED0C8",
"dX c #BFD7CC",
"fX c #A3C5D9",
"gX c #BFDCD9",
"hX c #A2D8E5",
"jX c #AAD9E6",
"kX c #C1D3C5",
"lX c #D0DAD0",
"zX c #DBE0C9",
"xX c #DCE1D6",
"cX c #E3E5D1",
"vX c #E6ECDE",
"bX c #D9ECEA",
"nX c #EEEDE9",
"mX c #F1EFEF",
"MX c #F0F4E9",
"NX c #F2F0EE",
"BX c #F2F0EF",
"VX c #FBFBF2",
/* pixels */
"                                                                                                                                                                ",
"                                                                                                                                                                ",
"                                                                                                                                                                ",
"                                                                                                                                                                ",
"                                                                                                                                                                ",
"                                                                                                                                                                ",
"                                                                                                                                                                ",
"                                                                                                                                                                ",
"                                                                                                                                                                ",
"                                                                                                                                                                ",
"                                                                                                                                                                ",
"                                                                                                                                                                ",
"                                                                                                                                                                ",
"                                                                                                                                                                ",
"                                                                                                                                                                ",
"                                                                                                                                                                ",
"                                                                                                                                                                ",
"      mXNXNXNXNXNXNXNXNXNXNXNXNXNXNXNXNXNXNXNXNXNXNXNXNXNXNXNXNXNXNXNXmXmXmXmXmXmXmXmXmXmXmXmXmXmXmXNXNXNXNXNXNXNXNXNXNXNXNXNXmXmXmXmXmXmXNXBXnXnXnXnXnXnX      ",
"    iXfXfXfXfXfXfXfXfXfXfXfXfXfXfXfXfXpXpXpXpXpXpXhXhXhXhXhXhXhXjXhXjXjXjXjXjXjXjXjXjXjXjXjXjXjXjXjXjXjXjXjXhXhXhXhXhXhXhXpXpXpXpXpXpXfXpXfXfXfXfXfXfXfXpXaX    ",
"    t.2.2.1.2.2.2.2.2.D.D.F.F.F.H.H.J.J.J.P.P.I.E.E.E.W.W.).).)._._._.`.'.'.'.'.'.'.'.'.'.'.'.'.'.`._._._.).).).).W.W.W.E.E.I.P.P.P.J.J.J.H.H.i.h.k.| b.K.G.    ",
"    t.1.1.1.1.1.1.2.2.2.D.D.D.F.F.H.H.J.J.J.P.P.I.E.E.E.W.W.W.).)._._._.`._.'.`.'.'.'.'.|.'.{. X_._._._._._.).W.W.W.W.E.E.I.P.P.P.J.K.K.H.F.F.i.Z D F D v.G.    ",
"    t.1.1.1.1.1.1.1.1.2.2.2.D.D.F.F.F.H.H.J.J.P.P.I.E.E.W.W.W.).)._._._.`.'.`.'.'.'.'.'.}. X/.]._._._.'. X]._.|.W.W.E.E.I.I.P.P.J.N.O.=.i.F.F.i.C D F #.g.G.    ",
"    t.<.1.<.1.<.1.1.1.1.1.2.2.D.D.F.F.F.H.J.J.P.P.P.I.E.E.W.W.).).)._._.`._.'.'.'.'.'.'.{.;X0X/.|.`._.^.N.!.].[.W.E.E.I.I.P.P.J.N.;.-.-.c.p.D.D.5.#.#.#.v.G.    ",
"    t.<.<.<.<.<.<.<.1.1.1.1.2.2.D.D.F.F.H.H.J.J.P.P.I.I.E.W.W.W.).)._._.`.`.`.'.'.'.'.'.`.B.R V.A.]. X).a.M.M.R.E.E.I.I.P.P.P.a.:.-.-.-.[ h.2.D.p.@.*.OXF.G.    ",
"    t.<.<.<.<.<.<.<.<.<.1.1.1.2.2.D.D.F.F.H.J.J.P.P.P.I.I.T.R.W.).)._._.`.`.`.'.'.'.'.'.|.(.j.c.c.V.B.(.N.f.T.W.E.E.I.I.P.P.J.h./ / $.^ R 2.2.D.D.h.V.i.D.G.    ",
"    t.<.1.<.<.u.h.g.p.<.u.u.1.2.2.2.D.F.K.H.H.J.J.U.U.U.J.K.P.I.R.)._._.`.`.`.'.'.'.|.'.|.|.s.c.A.N.j.Z.OXs.W.R.U.I.I.P.P.a.K.OX~ ~ ~ ^ j.2.2.2.2.2.2.2.D.w.    ",
"    t.J.J.H.D.p.R } k.h.XX7.1.1.2.2.2.p.b.F.H.K.i.b.b.b.p.u.K.p.T.)._._.`.`.`.'.'.|.`.|.{.[.!.j.x.N.x.5Xc.R.W.T.Q.U.I.P.Q.v.a.d.a p ( R p.1.1.1.1.1.1.<.<.w.    ",
"    G.I.I.L.i.y.d.) { T B k.&Xv.1.2.D.v.n.p.7.b.p.6.4.6.7.7.v.U.W.)._._.`.`.`.`.`.`.|.[.-Xj.q.P P l x.M.(.W.W.I.b.U.I.P.K.7.H.F.u.u.i.K.2.1.1.1.1.<.<.<.<.w.    ",
"    t.I.I.L.y.d.I : ~ m > N oXb.1.2.p.6.n.7.d 4.7.r d 4.4.7.i.W.W.)._._.`.`.`.^.`.`.`.^.j.l P ( s 5.N.(.).W.W.T.b.U.R.K.p.p.K.K.K.F.U.[.i.1.<.<.<.<.1.2.D.G.    ",
"    t.L.I.I.L.U { s B ` B 0 7.<.1.1.7.4.d f r r 0 X # 0 i.T.T.a.!.].!.`.(.`.`.'.'.'.|.'.^.N.z.{ | Z 5.U.^.^.R.Q.m.C. X{.g.v.b.&XQ.a././.i.<.<.<.<.1.r.T.T.~.    ",
"    t.r.L.I.L.e.a B B > B V.!.i.1.<.0 g.d d r r f X 6 T._._.h._ o.3X` C.`.'.|.|.|.|.|.|. X{.N.k t q j h.Q.[.^.Q.&X-XfX/.n.Q.U.K.r./.sXC.u.<.<.<.1.r.T.].].~.    ",
"    t.r.L.L.r.e.P m N N T j.!.r.1.<.0 f r d q # # o y.(.|.|.N._ 2X<X*.$X[.|.|.|.|. XS.{.}.hX Xy.y.7 w j -X,X].[.,X%Xn.5.&X&X/. X^.uX8XN.u.a.a.r.L.R.].[.[.~.    ",
"    t.e.e.y.a.e.0.a N e N.Y.T.T.i.y.9.,.,.6 o X q f 0 a.|. X XC. .D <X#.O. X|. X{.A.5X7XuXhXpX{.}.h.X # w y h.(.q.5.m.n.n.-X,X&XQ.uXuXa.N.S.[.T.R.].S.S.S.~.    ",
"    t.9.9.9.d.I 4 q * y &XT.^.].N.m.N.N.y.y.0 3 R lX-Xm.C.|.|.`.B. .z.z.C. X X X[.Z.' Z.wXtX0XuXhXC.3 X % 6 y.(.q.0 5.k..X%X%Xm.g./.uXB.M.S.!.R.(.[.7XZ.M.w.    ",
"    t.I 9.e.7 % j x z z .X,XfXgX,Xz @Xz.h.d.0Xk.t -Xk.r 0 !.T.T.^.].].|. X X X{.{.A.c.Z.5XO.c.S.{.M.3 O 4 U.`.`.^.0.4 j d r d .Xo.<X0XO.V.C.Y.R.(.A.! ! N.w.    ",
"    E I 9.9.I z x Z z y } zXkX,XZ u > = e e Z k t t 4 o I s.r.e.Y.!.!.(.|. X{.7X5X7X5XT < P Z.7XC.f.# y 0 T.^.N.a.N.k % % X * V %.2XeXF $X..j.(.L.A.! ! x.w.    ",
"    Y P c.0.7 I 4 O O . e k.e y Z w O O & i $Xy f h f.x.x.M.x.j.9.e.e.L.R.(.].Z.L ' ' < < O.6X1Xj.l 5.m.d.0 d.c z.z.k % q # # O e s k...;X-X/. XY.x.! W 0.w.    ",
"    Y P  .f.s.{.N.3 @ . X r * & * w q w u N <XB q l x.M.x.c.O.R 8 ,.,.e.r.r.e.s.q.U < ; < 5X,XsXz.k.m.fXkX4X| | Z k j r % q r o 6 9.x.6XS.].].S.7X7X! W q.Q     ",
"    9 l k.j.B.{.C.O.@.k N D F M D S A A _ > > B y l 7 7 I R R U 8 8 8 ,.,.,.,.e.}.8XT (  .XXk 5.5.c 4 m.sX,Xk.:X0Xc # % % # # x | m.M.5XZ.Y.s.Z.7XZ.! H W Q     ",
"    9 7 f.m.V.M.d.{ @.@XD M F M F M F F a h t s x g.7 6 0 s } x.9.8 8 8 8 8 8 ,.C.V.k.a Z j j c k.t 3 f k h y c z.k # X X # x 2XD A V.O.#Xx.f.W ! OXR R ! Q     ",
"    t.9.9.I .XXXq . e } #.M F M M F M #.` C.d.s oX=Xk.I 0 { } O.OXP 7 8 8 8 8 0.f.l j Z x z t z.5.f m.h.4 # X 3 c z.k X . X z eXA b c N V V x H c.X.A R W Q     ",
"    iX}.s.q.5 w % X * s V S D S S #.#.` ` $X=X| oX=X4Xz.l { y a ) ) l 7 8 8 0.Z.#Xo.oX@X.XZ { @. .k.;XpXc.4 X . % k.j % ; : p @.o.V = & & b C -X@XX.s T H Q     ",
"    iXuX].e.8 4 7 7 4 i > b b b b B } ( O.@.oXoX2XeX2X .p a 4 h e y 7 6 7 8 x.5X#.D oX=X| t c } ] _ <X>.yXOX3 . X 5 l q e m ] &.<XV = . . & j z.@XA B T U Q     ",
"    iXS.;XV.q.f.0.0.5 w w O % O ; h V.8X8X@XC V &.&.&.[ 2 [ O.O.% 4 6 6 6 8 f...D i Z k.z k 4 # 2 $./ / 6XOX5 , - - % q e p m m _ x i = & u k z...B A { K Y     ",
"    9X3Xo...O.&.=.O.T > u q # X 3 f.uXhX8X1X..2 2 ) K ) ] [ =.;.T 6 6 8 ,.q.c.N b w z 4.4.d j  .&.$.` $XV.l 5 5 + e a x a ( _ _ B 0 f = V b i z.wXeX3X} K +.    ",
"    9X%._ ` &.&.] ;.;.] s z r # o 7 q.C.O.] ) ( : p ) ) ) p p =.c.0.q.s.B.S.Z.a * % t w * d z .._ B X.;Xx.H I l # i X.a Z a ..<Xb * O & = & O y z XXlX6XK Y     ",
"    +.V b = n 2 : m ] &.@.=X.Xt l j.f.I } 2 p 2 ( ) [ ) K p K :.A.B.[.uXuX8Xc.l # # r w * w d = = = A OXZ.c.U h k X.o.C Z Z x 2XN & = N u w O w k.c .XXXe $     ",
"    Y b b > p 2 : &.] ] _ o.x h V.pXS.M.U < a s : ( ) K p p ) :.8XuXuXuXuX8XZ.h # q w & O O O * & i A @.6XOXh l j..XX.A A X.| .X.Xi = u s | .Xz c ,X-Xa a Y     ",
"    +.~ ] ( 2 ] m ] &.` _ _ B # h 8X8Xj.a T T k t e ( ) 2 < p =.yXgXsXgXgXkX@Xa w & O O * O O * i i X.@.:.c.c.f.7 j.C X.C Z 6.7.f u r e a j c h 3 d.,X;Xm.l.    ",
"    9X{ p 2 : 2 2 2 ) ) &.~ = . 4 8X;XT $XzXtX:Xd.3 @ p p : p =.yXMXzXyXyX*.;.>.;.] : O e e # ; * ; > ..:XA.z.l l k u > # 0 7.m.{ b | a X o 6 4 4 0 N.&X6.3.    ",
"    nXwX[ ( 2 @ @ : : ( 3XB * % h A.kXwXwX6X1X@Xx q X p : ; p =.6XtXtX&.$.$./ -.-.-.-.) , - - ; . . # q c z.d.c j y O . X 6 f  .@._ 1X1Xs 5 U 5 4 7 N.n.n.3.    ",
"    +.[ ( : @ @ O : p { ..{ T ' O.5XkXwX#X....s s e @ a 2 < T 6XkXwX0X} m ~ ~ ^ / / / / K 1 , - . . # h m.;Xm.c y % . . . o t x } _ &.@...{ a J L P m.n.4.3.    ",
"    Y : @ . O ; ; p K L L ' =.=.;.:.6XR s a s e ; O O % 3 4 h z.;X;X:X} n n m m ~ ^ ^ ^ p 1 , - @ # q k &XfXaX,Xk.h q O . . % x a m B > { $X|  .=.O.-X4.4.l.    ",
"    Y e @ < K K K K L L L ' ' ' =.=.6XR e @ O O % t c k.k.XX-X:X:X:X:X:X} n n n m ~ ^ ( - 5 , # % r t t k.sXbXbXbXbXkXXXq . e y t a u e .X4X$X3X0XtXMXlX-X3.    ",
"    E T K ' L G + + , , 1 G G G J J ' O.R Z Z .X:XkXgXvXvXvXzXwXX...@.#X#X} m n n ~ ^ ( y y c c c j t j OX;XgXbXbXVXbXxXk.t 5 3 3 3 t k.4XlXxXxX4X| $XkX4.3.    ",
"    E a K J 1 , @ X + + + - + + + - 1 J L 5XwXwXwXtXvXMXxXlXwX0X_ #.<X%.@.:X@.] ] #X@.[ O.:X:X0X:X-XXX-X;XsXsXxXbXbXbXbXgXm.h 3 o o 4 -XlXxXxX.Xk.j x Z t $     ",
"    E T J G 1 1 , - + + + + + - - , , 1 J L =.6X$X0XzXtX0X0X0X$X@Xo.<X*.1XwXtXtXtXlXwX#X:X:X:X:X:X#X:X#X:X$X0XwXtXeXlXgXgXgXsX;X-Xz.XX,X4XxXxX.X5.z.c y # $     ",
"    +.} J a z x Z C C N : , , 1 G G 1 1 G J R 6XwXwXtXtXwXwXwXwXwXwX` %./ yXVXMXMXvXxXlXtXwX0X$X$X$X$X$X3X$Xo.D F F 2XeXwXlXxXbXbXbXbXxXkXxXvXkXkXgX,Xz.k $     ",
"    E x z 8.%X=X=XoXoXoXs , , , 5 5 5 P R #X0XxXtXwXwXwXwXwXtXzXvXvX3X<X*.zXVXVXVXVXVXVXVXvXzXzXtXwX0XwXwX0X$XV v v v A o.wXkXkXlXvXMXvXkXlXxXlXlXgXsXsX;Xl.    ",
"    g d 8.%X=X=X=XoXoXZ k h h k c  .0XwXwXvXMXvXwXwXwXtXzXxXvXMXVXMXvXvXMXMXVXVXVXVXVXVXVXvXxXxXzXzXtXwX0X0Xo.V X.V V wXtXtXtXwX0XwXtXtXkXkXkXkXgXsX;X;X;Xl.    ",
"    g 8.%X*X*X*X%X8.| +X>X>X>X>XqXcXNXcXcXcXcXcXrXqXqXrXcXcXcXcXcXvXMXMXMXVXVXVXVXMXMXVXVXVXVXvXxXzXzXrX0X>X>XqXrX>XX.rXrXrXqXqX>X>X>X>X>X>XqXdXdXaXsXdXaX9X    ",
"                                                                                                                                                                ",
"                                                                                                                                                                ",
"                                                                                                                                                                ",
"                                                                                                                                                                ",
"                                                                                                                                                                ",
"                                                                                                                                                                ",
"                                                                                                                                                                ",
"                                                                                                                                                                ",
"                                                                                                                                                                ",
"                                                                                                                                                                ",
"                                                                                                                                                                ",
"                                                                                                                                                                ",
"                                                                                                                                                                ",
"                                                                                                                                                                ",
"                                                                                                                                                                ",
"                                                                                                                                                                ",
"                                                                                                                                                                ",
"                                                                                                                                                                ",
"                                                                                                                                                                "
};
