/* XPM */
static char *_bdc7e6b3b1c45039de3a770d18006085mmCH9FXpwooWsd7[] = {
/* columns rows colors chars-per-pixel */
"64 64 256 2 ",
"   c #020102",
".  c #0C0102",
"X  c #03020A",
"o  c #090809",
"O  c #130201",
"+  c #1B0200",
"@  c #1D0A03",
"#  c #140A0C",
"$  c #1B0D0B",
"%  c #140608",
"&  c #1C1406",
"*  c #090914",
"=  c #170D14",
"-  c #1A1517",
";  c #0D1607",
":  c #230200",
">  c #230B02",
",  c #2A0C01",
"<  c #270807",
"1  c #330300",
"2  c #390A02",
"3  c #24130C",
"4  c #291508",
"5  c #361707",
"6  c #250B16",
"7  c #241413",
"8  c #251C1B",
"9  c #2B1C1B",
"0  c #291915",
"q  c #351918",
"w  c #340B11",
"e  c #1A2402",
"r  c #3A2609",
"t  c #2B2417",
"y  c #382618",
"u  c #393518",
"i  c #302D09",
"p  c #1A1824",
"a  c #1B142C",
"s  c #271D25",
"d  c #331A2B",
"f  c #2D2322",
"g  c #292628",
"h  c #382827",
"j  c #393526",
"k  c #342C35",
"l  c #3A3537",
"z  c #2B2637",
"x  c #460802",
"c  c #471807",
"v  c #531A08",
"b  c #481B17",
"n  c #58160F",
"m  c #6C1D0B",
"M  c #452608",
"N  c #56260B",
"B  c #472718",
"V  c #572918",
"C  c #48351B",
"Z  c #563719",
"A  c #47390A",
"S  c #662A19",
"D  c #67361D",
"F  c #722E15",
"G  c #431D26",
"H  c #432C24",
"J  c #462A28",
"K  c #562A25",
"L  c #483628",
"P  c #573729",
"I  c #472A36",
"U  c #4A3736",
"Y  c #573936",
"T  c #592D37",
"R  c #672D27",
"E  c #663826",
"W  c #773527",
"Q  c #663936",
"!  c #763B37",
"~  c #682D31",
"^  c #484618",
"/  c #57461A",
"(  c #584C0C",
")  c #766618",
"_  c #4C4628",
"`  c #564729",
"'  c #59552C",
"]  c #4B4437",
"[  c #584538",
"{  c #595538",
"}  c #674729",
"|  c #78462B",
" . c #6A592A",
".. c #634434",
"X. c #684839",
"o. c #774839",
"O. c #675739",
"+. c #765739",
"@. c #766738",
"#. c #6F6631",
"$. c #685906",
"%. c #332A44",
"&. c #3C1E42",
"*. c #493546",
"=. c #593A46",
"-. c #493953",
";. c #50324D",
":. c #693C48",
">. c #523D62",
",. c #5A4946",
"<. c #5D5345",
"1. c #594955",
"2. c #555051",
"3. c #674846",
"4. c #764845",
"5. c #685647",
"6. c #745343",
"7. c #795749",
"8. c #684956",
"9. c #764C55",
"0. c #685656",
"q. c #785855",
"w. c #696346",
"e. c #776848",
"r. c #7A7248",
"t. c #796558",
"y. c #7B7357",
"u. c #6E645B",
"i. c #5B4D6D",
"p. c #785A68",
"a. c #795D74",
"s. c #694F69",
"d. c #7C6468",
"f. c #7C6674",
"g. c #78706D",
"h. c #8D3419",
"j. c #8E3727",
"k. c #AA3E1A",
"l. c #8C7617",
"z. c #85472B",
"x. c #844A34",
"c. c #964838",
"v. c #86553A",
"b. c #974F34",
"n. c #AC4E32",
"m. c #877837",
"M. c #8C7631",
"N. c #A94E27",
"B. c #C55831",
"V. c #CF6D35",
"C. c #874B49",
"Z. c #865849",
"A. c #865957",
"S. c #93554F",
"D. c #B45A43",
"F. c #A95849",
"G. c #876549",
"H. c #966849",
"J. c #877549",
"K. c #957746",
"L. c #8B645C",
"P. c #896757",
"I. c #966856",
"U. c #877659",
"Y. c #987559",
"T. c #A6675A",
"R. c #A37759",
"E. c #AD6B4E",
"W. c #865C66",
"Q. c #8E5B6C",
"!. c #8B6C62",
"~. c #866766",
"^. c #966A65",
"/. c #8A7568",
"(. c #987768",
"). c #896A76",
"_. c #956B77",
"`. c #8B7577",
"'. c #987A76",
"]. c #A46A66",
"[. c #A67968",
"{. c #B77A66",
"}. c #A67A76",
"|. c #B46E70",
" X c #A95466",
".X c #CA6D4E",
"XX c #C5766F",
"oX c #E1724B",
"OX c #8B3B48",
"+X c #94872F",
"@X c #A29133",
"#X c #988557",
"$X c #95854A",
"%X c #A68E4D",
"&X c #B4AB4C",
"*X c #998667",
"=X c #9B847B",
"-X c #918872",
";X c #A6876A",
":X c #A88677",
">X c #B58677",
",X c #AB9577",
"<X c #B79679",
"1X c #B38E69",
"2X c #E58950",
"3X c #C4997C",
"4X c #D18A70",
"5X c #C5A17C",
"6X c #F9AA74",
"7X c #D98A6B",
"8X c #7A638B",
"9X c #685982",
"0X c #977A89",
"qX c #8B748E",
"wX c #A47983",
"eX c #B47D84",
"rX c #957EAA",
"tX c #CE7689",
"yX c #9B8585",
"uX c #938D83",
"iX c #A98686",
"pX c #B68987",
"aX c #AA9387",
"sX c #B79688",
"dX c #A98896",
"fX c #AB9794",
"gX c #B99797",
"hX c #B78B94",
"jX c #BCA688",
"kX c #B1A490",
"lX c #AA93AF",
"zX c #BAAAB1",
"xX c #9D86A2",
"cX c #C59A86",
"vX c #C69A95",
"bX c #D28C90",
"nX c #C8A988",
"mX c #C8A896",
"MX c #CAB799",
"NX c #D6B79A",
"BX c #D4AB92",
"VX c #F1AB89",
"CX c #CB99A4",
"ZX c #D5AAA8",
"AX c #D6B5A7",
"SX c #DAB5B8",
"DX c #CBACAE",
"FX c #EEB3AB",
"GX c #E799A6",
"HX c #D9C5A8",
"JX c #ECC8A8",
"KX c #E3CBA5",
"LX c #B7B7CF",
"PX c #EAB6C2",
"IX c #F4D0D1",
"UX c #FFD5E3",
/* pixels */
"*.s.8.I ,.8.0.f.-.rXi.lXlXqX8Xi.9X>.s.fXU.r.nX;X7.Y 8.=.s.a.=.3.U.#Xr.;X$X1X&X&X&X@X@X$Xr.3.>.s.1.g.DXf.=.8.9.8.9.q.q.U *.%.i.LX",
"&.1.a.p.p.p.d.qX;.xX8XrX8Xi.s.i.i.>.a.fXU.r.jX,XP.Y =.*.*.=.U 0.U.#X@.#XJ.$X%X%X&X+X+X$XJ.[ *.;.k 0.fX0.*.=.:.=.3.9.3.h k z -.LX",
"i.1.p.f.d.`.yX0X1.xXa.qXqXa.i.-.%.%.2.-X5. .,X,X!.,.=.*.I I U y.U.U.O.w.O.@.m.+X&X+X+X%X#X6.U I U ] `.0.1.I I T :.q.3.H I s k zX",
"s.;.8.p.).fXfXd.1.qXa.rXlXqX1.I -.l 2./.w.w.,XsXt.Y U =.,.U ,./.y.e._ _ _ ` @.m.+X+XM.+X#XY.6.U ] j 0.f.).d I 9.9.L.6.Y 3.l h lX",
"d ;.p.`.=XzXaXY =.f.0XlXzXf.0.0.,.k <.y.y.r./.=Xt.Y d U ,.[ 5.y.w.<.j y u L r.J.@.+XM.) m.#XG.P L ] 2.0.).=.8.W.A.L.7.X.q.Y h ).",
";.a.0X`./.:X'.,.d.`.0XyXDXyXt.t.] t ] w.e.e.O.5.`.5.q J [ { e.e.{ ] f 0 h j e.r.m.$X+X) M.%XK. .` -Xg.Y f.p.).9.A.L.P.7.P.7.Y 0.",
"a.).p.q.!.(.(.(.aXiX=Xd.DXMX-X5.y._ 5.w.e.t.3.u./.q.h U <.5.y.w.] l g - l h u.5.#X#X$XM.M.@X@Xm.r.kX/.U p.p._.3.L.P.[.I.Z.L.4.3.",
"s.:.I 3.sXjX,XjX'.kXDX!.mXMX,Xr.-X{ { _ [ 5.[ d.5.0.H U O.5.r._ l l k g U g 0.[ /.J.J.+XM.l.+X%XJ.=X5.L ~.8.W.W.A.Z.[.I.o.P.A.o.",
"8.=.T q.:X;XY.;X,XP.:XHXHXMXjXr.r.{ O.5.L [ t.q.[ 0.L [ e.w.w._ 2.l z k k U ,.<.5.U.#X$XM.l.l.l.J.w.5.[ U q.~.Q 4.[.Z.R.I.o.L.R ",
"wX_.9.q.>XnXY.+.(.(.,XmXmXNXjXJ.@.{ O.O.U ,.u.0.t.t.C ` y.y.w.j g z - p 2.0.,.,.[ e.U.$XM.l.l.l.$XO.` X.Y Y 9.9.4.(.6.Z.o.o.[.A.",
"_.wXq.X.[.NX1X} X.U.(.U.(.<X;X#.O.{ 5.<.] 5.u.5./.y._ _ w.w.{ g * %.- p g.uX<.<.U O.r.J.m.M.l.) m.Z C 7.3.G I 9.X.^.X.K V V L.7.",
"T 9.Q V G.nXnXY.P P.Y.6.e.Y.J.+.' { 5.<.,.0.q.5.e.y.O.' { ] j g p %.s g g.uXy.<.U [ 7.J.J.M.) $.m./ ` U.~.J G =.3.L.X.V b b Q B ",
"Q :.P P H.5XBXnXG.;X(.P.G.G.G.J._ 5.5.<.0.0.0.5.O.r.r.{ { ] s p z p g l ] y.-X{ ] [ 5.t.J.m.) ( m.@.+.(.'.9.Y =.9.q...P K P Y G ",
"wX^.4.Z.<X5X5XnX;X:X:X(.G.+.+.e._ <.<.2.0.0.[ O.@.#.#.' w.2.g a %.* k U y w.-Xw.[ U ] 5.U.r. .( K.K.@.+.L.~.8.8.q.3.L H Y [ 3.=.",
"pX}.^.>XnX1X;X<XcX<XsX;XX.} } ` [ <.,.2.0.,.L O. .' #._ { 2.a a %.a h L u ' U.e.5.] U <.t.e. .( m.K.+.} q.~.p.d.).,.J h J I U 3.",
"A.^.>XcX3XR.K.3XNXBXAXsX+.X.+.Z [ ,.U ,.0.] u O.u ^ #.^ j l = z a s s h L _ ' w.e.[ L [ w.w.` A #.K.@.+.L.~.d.`.dX0.=.U h q 6 U ",
"Z.Z.>X>XcX>X3XR.[.BXBXY.G.G.+.X.O.L U ,.U L _ ' u ^ ^ ^ _ L h s s k s s h L { U.w.i r r. .` r.Z  . .J.X.q.fX0X0X).f.s.*.= = h I ",
"I.T.>X[.{.3XBX3X3XcXnX3XY.Z M } ..P Y [ H u _ _ ^ ^ / _ _ U J f g g s s g h U w.e.A r #.#. .+.M  ./ e.U.X.~.DXdX0XqXqXs.d 6 h Y ",
"W S.[.{.[.BXBX>XZ.[.3X>XG.E V P P P [ L 0 y L C u ^ _ _ [ <.,.U g g s - s 8 t _ O.#. .#. ./  .Z } ;XG.P.=X'.0X8.).a.a.8.h 7 H Y ",
"C.Z.| o.E [.cXmX[.cXFXBX>XI.o.V B P [ H > t L u i u ^ _ ,.2.1.*.g g p - g 8 t L ' $X@.#. ./ } O.O.;X..Y '.).).dXp.*.I U J J 3.7.",
"V V Q [.Z.I.Z.I.pXI.>XFXAX}.Z.o.M L [ y > t j i u u _ _ ,.1.-.%.g f - - g f t u @.J.^ A  . .} P [ P '.gX).=.=.).=.d q J P 6.(.sX",
"X.V K Z.4.Z.(.vXo.R Z.pXcXpX}.Z.M C [ H 4 y j i i u L ] 2.s.i.-.g f - - g f 0 u '  .r r Z / ` P Y ).IXIXSXdXI < q w q B B 6.>XnX",
"P K q.'.}.^.}.:X4.A.}.}.^.pXeXQ B B P L y u L i i u L ] 0.f.9Xi.l j 8 8 h h 9 y C  .A M A r ` X.`.SXDX_.DXIXwXT w < 5 c P I.<X1X",
"L.q.}.!.^.q.(.^.Q ~ ^.pXQ.A.].A.B B L P H H L y r u u U 1.1.>.%.2.U h f l h q y O.} M A ` ` O.[ IXdX).dX_._.gX8.J w 2 B G.nXnXK.",
":XL.P.7.:X!.}.vXA.4.^.}.hXA.4.~ B r C 5.P.7.L 5 C B r L 0.p.;.a 9 ,.J 6 I I w B 7.} / M C O.y O p.0XqXdX0XW.dXgX4.b V I.BX<X5X#X",
"sXq.P Y }.:XiXpXpXW._._.hX}.wXA.6...C P /.}.o.5 M M M 5 P 9.=.6 J q q G G q G X.X.} } Z r 4 . . 6 I *.p.).W.wX0X7.5 o.<XFX3X1XK.",
"(.^.7.7.A.^.iXZXZX_.wXpXZXSXPXvXpX(.P B (.sXZ.N c H.1Xv.V K K G b w 9.CXZXeX4.1 Q Z Z M r L & . % 6 6 =.p.~._.~.6.5 (.NXJXKXBX3X",
":X[.6.L.(.sXiXvXgXA.iXSXUXIXUXSXAXmX7.K Z.I.x.| 5XVXVX5X4XT.! 1 b :.eXPXUXUXZXI.o.E V : 4 [ t   % % % s I J U J ..5 mXNXNXJXKXJX",
"^.:XL.(.(.pX^.'.^.4.iXSXUXSXSXDXZXZX(.Q K R z.E.VXVX6X6X7XD.F x ! bXFXCXGXbXbXFXcX[.I.Z 5 t .   . . % % O O + 4 B L AX<XY.;X;X<X",
"6.:X>X}.P.Z.4.A.A.!.hXgXSXiXdXdXsXvX>X! c S F.7X.X2X6X6XV.h.j.F.|.GXGXbXbX XOXbXJX>X[.P.5.t   o   . $ @ O + O 4 > P sXU.+...} o.",
">X>X(.Z.}.[.7.K 4.pXvX).dXiXiXiX:XpX>XQ x c.7X7XoXV.V.2X2X2XoX.XXXXX X|.tXtX|.bXXXS.[.:X=Xu.f - o   . . . > O 4 4 Y P.6.7.B c B ",
"cXmXcXI.>X^.L.o.b sXvX3._.iXiX'.iXpX}.R x XXFX.Xk.N.V.B.B.V.B.N.XXXXtXtXXXtX|.! ! >XIXIXSXSXyXd.,.7 $ . 3 H 0 y Y X.Y [ P.5 : 2 ",
"pXAXcXI.^.[.I.S.I.Z.^.L.A.!.6.!.pXeXPX Xx FXXX.Xn.B.oXoXB.k.B..X.XF.|.XXC.:.9.Y W.IXUXvXvXZXbX].T q q 6 O O 7 0.U j H L y , , 5 ",
"gX:XmXmXI.].>XS.W S C.o.P Y Y A.9.A.eXCXC.XXF.F.n.D..X.XN.k.B.n.F.j.j.C.! K Y q.fXiXiXcXGXbXXXXX}.~.q.q O O O s h 7 $ 3 > O O : ",
"Y.6.(.[.o.| H.x.v V S.P.P y y X.3.9.4.ZXI.W j.j.c.D.n.n.h.h..Xn.c.C.W ! ! w B iXSX_.A.pXcX].S.^.iXiX).q . $ % $ f $ . O O . . O ",
"E o.E V D S S x.x.v.;X:X..5 0 h q.!...(.K c E R W x.m F m m b.z.W W W ! ! c b ^.pX~.^.pX].A.S.A.p.p.8.6 . 7 3 7 9 $ O % % % . # ",
"E +.E N W z.| v.I.Z.I.P.B > y 0 t C y C : : 2 c N N 1 2 1 1 V c x x v ~ Q K b b q.X.q.!.A.P.(.!.U g k = O 3 + 3 < @ $ # # o * * ",
"} N | x.F b.R.W v c N Q b y [ & & 4 _ w.5.` B Y P 5 , 5 , : + + 2 V Z.^.C.Q ! 4.}.4.Y X...` [ <.8 X # $ 4 , + 5 , , 3 - = * * * ",
"W N z.F.z.n.XXb.m v v E B ..~.4 U.*XaXHXHXkX,XsX~.0 y 9 0 0 . 4 L.pXvXvXpXC.C.cXZX}...C u 4 & t -   . 3 5 5 1 c c 5 , > = = * * ",
"b.b.b.E.7X.XXXVXVX{.x.R c X.iXL MXKXMXMXMXkXDXgXaXq h 7 $ h % [ IXIXpX>XFX].R |.}.>X7.r i i e t t O > , 5 c 1 2 v 2 : + O # o X ",
"h.F z.D.D.n.D..XXXFXT.n b 4.'...HXKXMXHXMXkXmXgXCX=.h I 9 # h uXaXsXZXpXA.I.Z.o.4.[.G.C u i ; e & @ B + 1 x.F z.F v 1 : : O . . ",
"c.j.j.c.N.j.n.D.D.F.bX! x C.A.Q MXNX,X(.(.aXZXDXhXfX8.6 I l f `.q.q.iXpX].o.V x.S.P.7.P & ; e & 4 2 2 2 z.VXVX4X7XE.W c : + O @ ",
"c.c.h.F h.h.j.j.j.m 4X|.x ~ 4.P <XNXnX:X:XsXSXCXCXIXCXY h 7 O 0.yXL.A.(.>XC.2 N o.o.*X,XO.u i & : : : x.4X4X4XXX7X4X{.S.D 2 + + ",
"F W F m m h.j.h.j.j.T.bXR 1 A.Q [.nXBXBXmXvXZXgXCXhXSXzXq.y @ h /.~.q.A.pX[.c c M Z ;XHX,X' e . : 1 D {.XXS.c.T.F.T.{.>XI.E 2 : ",
"x S S S S W j.W W x.x.T.! 1 3.^.;X;XP.:XvXhXgXiX).:._.SXIXaXH + Y q.^.^.}.6., M } J.,XnXjXO.> , : W 4XC.R T.S.].C.C.I.].T.x.N c ",
"1 B R S S S D S W S o.R P B B gXmX*X+.*XmXgXwX9.9.W.9.~.IXMXr > X.T 4.A.(.X.M +.;XnX<X;X<XG.5 , 1 S {.! ~ ].C.Q.A.9.4.A.S.| N x ",
", 5 B M c v v v V v K c 5 q q aXmXjX:XmXAXgX'.9.W.'.q.X.sXaXr 4 J w T P.:XsX,XMX;X;XJ.+.7.G.E 2 n x ! A.Q.Q.:.Q.9.:.3.9.Z.| N c ",
"4 > : , , , 2 2 2 V 2 B , O L t.*XnXMXmXaX:XsXiX~.Y 6.(.mXNX@., 1 ~ pXvXsXmX<X;X,XJ.} M Z ;X<X| x 2 1 V :.:.9.p.9.:.Q 4.Z.Z.v.v.",
"0 @ O @ @ @ 4 B , , L P 5 O 5./.*XHXNXnX<X(.;XcX:X>X;X;XnXBXY.N } H.[.;X;X<X:XU.+.X.Z C E G.R.;Xx v F z.b.x.S N R S V E E D D E ",
"@ O . . O O . O 4 @ y L J 5 q.P.G.*XJ.Y.;X1XnXnX1X;XH.v.I.<X<XR.H.R.R.v.G.[.;XP.P Z M M E v.K.H.x D.VX7XE.F.b.F c x x c N V E o.",
"3 @ O . O @ + O O O 4 y B , ..X.P } } G.Y.;X<XY.Y.I.v.| +.H.R.R.H.Y.K.G.G.Y.G.} 5 5 5 N } | D N z.4XVX4XE.{.{.v.S v 2 2 2 b R 4.",
"U L y > 7 H U L H > : 5 [ y Y C 5 M B } Z X.Y.G.<X[.I.Z.+.| v.G.| v.H.I.Y.Y.+.C : , 5 N } v.v.z.E.b.z.S.T.T.T.T.S.o.V 2 1 1 w b ",
"U Y U y y U 3.3.5.5 O + 6.P P , : + + : : 5 +.+.<XI.} V N Z | G.Z.7.7.7.P.U.e.+.G.+.} D D | H.{.| R ! T.I.o.o.^.].A.K w : + + : ",
"3 0 0 4 4 y B H P 5 O : [ B K B ..X.} 6.G.Y.:XI.7.E M c N E +.P.I.P.P.P.(.(.!.P.(.(.P.v.| D | v.S ! C.S.C.! ! 4.A.4.K b < + + + ",
"O O + > 5 y y H Y Y C L P.P 7.P.E P.Z.I.(.P.P.6.7.6.o.7.P.(.(.^.P.t.!.:XaX'./.!.X.+.Z.G.Z.x.z.v.R ! ! Q 4.Z.4.K :.Q T T J w : : ",
"y 3 @ y L [ 5.t.q.[ 5 H :X/.P.7...'.!.q.7.X.P.:X!./.!.P.L.(.^.q.t.t.~.=XyX'.'.'.:X(.I.I.Z.x.z.v.c K Q o.Z.Z.4.P Q Q Q Q P q : + ",
"~.5.Y /.0.5.3.'.=X/.(.aXaX:X(.'.!.!.(.'./.q.q.!.(.(.!.q.3.P B q 3 y U [ ,.,.5.0.'.'.P.7.Z.Y.Y.Z.V M B E X.P B B C B y B B 5 : + ",
"h h 9 U y H h U q.,.[ 5.t.t.!.'.~.t.q.7.0.q.q.q.'.t.[ y @ O O + 7 9 9 9 9 f l U 3./.iX'.P.7.o.E (.P + O , r M r , , 5 C L L L P ",
"% f 8 7 % f 9 3 j 0 3 0 h U [ 5.U U H q y U U 0 9 0 3 3 & 3 3 7 3 7 $ % % # 8 f 9 L ,.7.!.:X:X(.7.[ 5 O O + , 4 C L [ O.5.O.5.e.",
"% s 8 = # f 9 $ 0 $ $ 3 0 7 3 9 3 3 @ @ 7 9 $ . % $ 8 f t - % . . O % $ # # # = - $ @ 3 H 3.5.X.5.U./.t.5.X.X.[ [ [ [ [ L y y C ",
"X o * X     # # 8 - - 7 7 $ % % 7 % $ 7 8 $ % % 8 - # o             . o o       o - g 8 $ @ @ 3 y j h h L ] L 0 L h y y t 4 @ @ ",
"X X X X X X   % % o . . . . . % - . . # #     -             o o                   * - - t t f f - 7 8 8 9 f f 9 h 9 0 9 f 9 7 3 ",
"* X = X * X * X X X         . . .                   o o o       o .           X * X X   o = # o o - g k 8 # # 8 = # # = = % . . ",
"X X p X * X * X X X * o o .       o o     # o             o o o             X X X   * *         s * X * = #     . % # = # . . % "
};
